<?xml version="1.0" encoding="utf-8"?>
<!-- Generator: Adobe Illustrator 22.1.0, SVG Export Plug-In . SVG Version: 6.00 Build 0)  -->
<svg version="1.1" id="Layer_1" xmlns="http://www.w3.org/2000/svg" xmlns:xlink="http://www.w3.org/1999/xlink" x="0px" y="0px"
	 viewBox="0 0 419.5 595.3" style="enable-background:new 0 0 419.5 595.3;" xml:space="preserve">
<style type="text/css">
	.st0{fill:#FFFFFF;}
	.st1{fill:#808285;}
	.st2{clip-path:url(#SVGID_2_);fill:#808285;}
	.st3{clip-path:url(#SVGID_2_);fill:#FFFFFF;}
	.st4{clip-path:url(#SVGID_4_);}
	.st5{font-family:'Avenir-Heavy';}
	.st6{font-size:12px;}
</style>
<g>
	<polyline class="st0" points="394.6,154.8 245.3,154.8 245.3,14.3 394.6,14.3 394.6,154.8 	"/>
	<polygon class="st1" points="394.6,154.8 394.6,154.7 245.4,154.7 245.4,14.4 394.5,14.4 394.5,154.8 394.6,154.8 394.6,154.7 
		394.6,154.8 394.7,154.8 394.7,14.2 245.2,14.2 245.2,154.9 394.7,154.9 394.7,154.8 394.6,154.8 	"/>
	<polygon class="st0" points="245.3,181.6 106.5,181.6 106.5,14.3 245.3,14.3 245.3,181.6 	"/>
	<g>
		<defs>
			<rect id="SVGID_1_" width="419.5" height="595.3"/>
		</defs>
		<clipPath id="SVGID_2_">
			<use xlink:href="#SVGID_1_"  style="overflow:visible;"/>
		</clipPath>
		<polygon class="st2" points="245.3,181.6 245.3,181.5 106.6,181.5 106.6,14.4 245.1,14.4 245.1,181.6 245.3,181.6 245.3,181.5 
			245.3,181.6 245.4,181.6 245.4,14.2 106.4,14.2 106.4,181.7 245.4,181.7 245.4,181.6 245.3,181.6 		"/>
		<polygon class="st3" points="59.7,156.9 -0.6,156.9 -0.6,14.3 59.7,14.3 59.7,156.9 		"/>
		<polygon class="st2" points="59.7,156.9 59.7,156.8 -0.4,156.8 -0.4,14.4 59.6,14.4 59.6,156.9 59.7,156.9 59.7,156.8 59.7,156.9 
			59.8,156.9 59.8,14.2 -0.7,14.2 -0.7,157 59.8,157 59.8,156.9 59.7,156.9 		"/>
	</g>
	<polygon class="st0" points="106.5,162.9 59.7,162.9 59.7,14.3 106.5,14.3 106.5,162.9 	"/>
	<polygon class="st1" points="106.5,162.9 106.5,162.8 59.9,162.8 59.9,14.4 106.3,14.4 106.3,162.9 106.5,162.9 106.5,162.8 
		106.5,162.9 106.6,162.9 106.6,14.2 59.6,14.2 59.6,163 106.6,163 106.6,162.9 106.5,162.9 	"/>
	<polygon class="st0" points="59.7,139.7 59.7,156.9 14.6,156.9 14.6,181.7 14.6,220.8 52.5,220.8 52.5,181.7 59.7,181.7 
		106.5,181.7 106.5,139.7 59.7,139.7 	"/>
	<polygon class="st1" points="59.7,139.7 59.6,139.7 59.6,156.8 14.5,156.8 14.5,181.7 14.5,220.9 52.6,220.9 52.6,181.8 
		59.7,181.8 106.6,181.8 106.6,139.6 59.6,139.6 59.6,139.7 59.7,139.7 59.7,139.8 106.3,139.8 106.3,181.6 59.7,181.6 52.4,181.6 
		52.4,220.6 14.7,220.6 14.7,181.7 14.7,157.1 59.8,157.1 59.8,139.7 59.7,139.7 59.7,139.8 59.7,139.7 	"/>
	<polygon class="st0" points="245.2,440 52.6,440 52.6,173.7 245.2,173.7 245.2,440 	"/>
	<polygon class="st1" points="245.2,440 245.2,439.9 52.7,439.9 52.7,173.9 245.1,173.9 245.1,440 245.2,440 245.2,439.9 245.2,440 
		245.3,440 245.3,173.6 52.5,173.6 52.5,440.2 245.3,440.2 245.3,440 245.2,440 	"/>
	<polygon class="st0" points="394.6,281.4 245.3,281.4 245.3,154 394.6,154 394.6,281.4 	"/>
	<polygon class="st1" points="394.6,281.4 394.6,281.3 245.4,281.3 245.4,154.2 394.5,154.2 394.5,281.4 394.6,281.4 394.6,281.3 
		394.6,281.4 394.7,281.4 394.7,153.9 245.2,153.9 245.2,281.5 394.7,281.5 394.7,281.4 394.6,281.4 	"/>
	<polygon class="st0" points="394.6,440.1 245.3,440.1 245.3,281.4 394.6,281.4 394.6,440.1 	"/>
	<polygon class="st1" points="394.6,440.1 394.6,440 245.4,440 245.4,281.6 394.5,281.6 394.5,440.1 394.6,440.1 394.6,440 
		394.6,440.1 394.7,440.1 394.7,281.3 245.2,281.3 245.2,440.2 394.7,440.2 394.7,440.1 394.6,440.1 	"/>
	<polygon class="st0" points="394.6,550.9 326.3,550.9 326.3,440.1 394.6,440.1 394.6,550.9 	"/>
	<polygon class="st1" points="394.6,550.9 394.6,550.8 326.4,550.8 326.4,440.2 394.5,440.2 394.5,550.9 394.6,550.9 394.6,550.8 
		394.6,550.9 394.7,550.9 394.7,439.9 326.2,439.9 326.2,551 394.7,551 394.7,550.9 394.6,550.9 	"/>
	<polygon class="st0" points="115.3,488.6 52.1,488.6 52.1,440 115.3,440 115.3,488.6 	"/>
	<polygon class="st1" points="115.3,488.6 115.3,488.5 52.2,488.5 52.2,440.1 115.1,440.1 115.1,488.6 115.3,488.6 115.3,488.5 
		115.3,488.6 115.4,488.6 115.4,439.9 52,439.9 52,488.8 115.4,488.8 115.4,488.6 115.3,488.6 	"/>
	<polygon class="st0" points="295.2,495.5 295.2,440.1 172.8,440.1 172.8,550.9 295.2,550.9 326.3,550.9 326.3,495.5 295.2,495.5 	
		"/>
	<polygon class="st1" points="295.2,495.5 295.3,495.5 295.3,439.9 172.6,439.9 172.6,551 295.2,551 326.4,551 326.4,495.4 
		295.2,495.4 295.2,495.5 295.3,495.5 295.2,495.5 295.2,495.6 326.1,495.6 326.1,550.8 295.2,550.8 172.9,550.8 172.9,440.2 
		295.1,440.2 295.1,495.6 295.2,495.6 295.2,495.5 	"/>
	<polygon points="394.7,551 394.7,545.7 46.4,545.7 46.4,551 394.7,551 	"/>
	<polygon class="st0" points="111.5,578.2 166.7,578.2 166.7,518.5 111.5,518.5 111.5,578.2 	"/>
	<polygon points="112.5,566.7 112.5,570.7 166.7,570.7 166.7,566.7 112.5,566.7 	"/>
	<polygon points="112.5,576.5 112.5,580.6 166.7,580.6 166.7,576.5 112.5,576.5 	"/>
	<polygon points="112.5,556.8 112.5,560.9 166.7,560.9 166.7,556.8 112.5,556.8 	"/>
	<polygon points="46.4,219.7 46.4,548.3 52.6,548.3 52.6,219.7 46.4,219.7 	"/>
	<polygon points="388.5,16.9 388.5,550.5 394.7,550.5 394.7,16.9 388.5,16.9 	"/>
	<polygon points="14.5,215.4 14.5,220.8 52.6,220.8 52.6,215.4 14.5,215.4 	"/>
	<g>
		<defs>
			<rect id="SVGID_3_" width="419.5" height="595.3"/>
		</defs>
		<clipPath id="SVGID_4_">
			<use xlink:href="#SVGID_3_"  style="overflow:visible;"/>
		</clipPath>
		<polygon class="st4" points="14.5,215.4 19.8,215.4 19.8,157 14.5,157 14.5,215.4 		"/>
		<polygon class="st4" points="19.8,162.4 19.8,157 -38.6,157 -38.6,162.4 19.8,162.4 		"/>
		<polygon class="st4" points="394.7,19.6 394.7,14.2 -0.2,14.2 -0.2,19.6 394.7,19.6 		"/>
	</g>
	<polygon class="st0" points="353.7,172.2 353.7,200.3 413.4,200.3 413.4,172.2 353.7,172.2 	"/>
	<polyline class="st0" points="353.7,48.2 353.7,76.3 413.4,76.3 413.4,48.2 353.7,48.2 	"/>
	<polygon class="st0" points="130.4,59.7 158.5,59.7 158.5,0 130.4,0 130.4,59.7 	"/>
	<polygon class="st0" points="158.5,59.7 186.6,59.7 186.6,0 158.5,0 158.5,59.7 	"/>
	<polygon class="st0" points="186.6,59.7 214.6,59.7 214.6,0 186.6,0 186.6,59.7 	"/>
	<polygon class="st0" points="353.7,303.3 353.7,331.4 413.4,331.4 413.4,303.3 353.7,303.3 	"/>
	<polygon class="st0" points="353.7,218.3 353.7,246.4 413.4,246.4 413.4,218.3 353.7,218.3 	"/>
	<polygon class="st0" points="353.7,94.3 353.7,122.4 413.4,122.4 413.4,94.3 353.7,94.3 	"/>
	<polygon class="st0" points="353.7,349.4 353.7,377.5 413.4,377.5 413.4,349.4 353.7,349.4 	"/>
	<polygon class="st0" points="348.1,578.2 376.2,578.2 376.2,518.5 348.1,518.5 348.1,578.2 	"/>
	<polygon class="st0" points="274.1,578.2 302.2,578.2 302.2,518.5 274.1,518.5 274.1,578.2 	"/>
	<polygon class="st0" points="209.3,578.2 237.4,578.2 237.4,518.5 209.3,518.5 209.3,578.2 	"/>
	<polygon class="st0" points="95.7,525.3 95.7,497.2 36,497.2 36,525.3 95.7,525.3 	"/>
	<polygon class="st0" points="95.7,372.7 95.7,344.7 36,344.7 36,372.7 95.7,372.7 	"/>
	<polygon class="st0" points="95.7,344.7 95.7,316.6 36,316.6 36,344.7 95.7,344.7 	"/>
	<path d="M261.3,316.7h1.4v-8.5h-1.3l-2.6,2.1l0.8,1l1.6-1.5V316.7L261.3,316.7z M269.6,316.7h1.4v-8.5h-1.3l-2.6,2.1l0.8,1l1.6-1.5
		V316.7L269.6,316.7z M277.2,308.2c-0.3,0.1-0.6,0.2-0.8,0.4c-0.2,0.2-0.4,0.4-0.6,0.7c-0.1,0.3-0.2,0.6-0.2,1
		c0,0.5,0.1,0.9,0.3,1.2c0.2,0.3,0.5,0.6,1,0.7v0c-0.2,0-0.4,0.1-0.6,0.2c-0.2,0.1-0.4,0.3-0.5,0.5c-0.1,0.2-0.3,0.4-0.3,0.6
		c-0.1,0.2-0.1,0.5-0.1,0.7c0,0.4,0.1,0.8,0.2,1.1c0.2,0.3,0.4,0.6,0.6,0.8c0.3,0.2,0.6,0.4,0.9,0.5s0.7,0.2,1.1,0.2
		c0.4,0,0.8-0.1,1.1-0.2c0.4-0.1,0.7-0.3,0.9-0.5s0.5-0.5,0.6-0.8c0.2-0.3,0.2-0.7,0.2-1.1c0-0.3,0-0.5-0.1-0.7
		c-0.1-0.2-0.2-0.4-0.3-0.6c-0.1-0.2-0.3-0.3-0.5-0.5c-0.2-0.1-0.4-0.2-0.6-0.2v0c0.4-0.1,0.8-0.4,1-0.7c0.2-0.3,0.3-0.7,0.3-1.2
		c0-0.4-0.1-0.7-0.2-1s-0.3-0.5-0.6-0.7c-0.2-0.2-0.5-0.3-0.8-0.4c-0.3-0.1-0.7-0.1-1-0.1C277.9,308.1,277.5,308.1,277.2,308.2
		L277.2,308.2z M279.1,309.6c0.2,0.2,0.3,0.5,0.3,0.8c0,0.2,0,0.3-0.1,0.5c-0.1,0.1-0.1,0.3-0.3,0.4c-0.1,0.1-0.2,0.2-0.4,0.3
		c-0.1,0.1-0.3,0.1-0.4,0.1c-0.4,0-0.6-0.1-0.9-0.3c-0.2-0.2-0.3-0.5-0.3-0.8c0-0.3,0.1-0.6,0.3-0.8c0.2-0.2,0.5-0.3,0.9-0.3
		C278.6,309.3,278.9,309.4,279.1,309.6L279.1,309.6z M278.8,312.9c0.2,0.1,0.3,0.2,0.5,0.3c0.1,0.1,0.2,0.3,0.3,0.4
		c0.1,0.2,0.1,0.3,0.1,0.5c0,0.4-0.1,0.7-0.4,1c-0.3,0.3-0.6,0.4-1,0.4c-0.4,0-0.8-0.1-1-0.4c-0.3-0.3-0.4-0.6-0.4-1
		c0-0.2,0-0.4,0.1-0.5c0.1-0.2,0.2-0.3,0.3-0.4c0.1-0.1,0.3-0.2,0.5-0.3c0.2-0.1,0.4-0.1,0.6-0.1
		C278.4,312.8,278.6,312.8,278.8,312.9L278.8,312.9z M283.6,314.2c0.1,0.5,0.3,0.9,0.4,1.2c0.2,0.3,0.4,0.6,0.6,0.8
		c0.2,0.2,0.4,0.3,0.7,0.4c0.2,0.1,0.4,0.2,0.7,0.2c0.2,0,0.4,0,0.6,0c0.2,0,0.3,0,0.6,0c0.2,0,0.4-0.1,0.7-0.2
		c0.2-0.1,0.5-0.2,0.7-0.4c0.2-0.2,0.4-0.5,0.6-0.8c0.2-0.3,0.3-0.7,0.4-1.2c0.1-0.5,0.2-1,0.2-1.7c0-0.7-0.1-1.2-0.2-1.7
		c-0.1-0.5-0.2-0.9-0.4-1.2s-0.4-0.6-0.6-0.8c-0.2-0.2-0.4-0.3-0.7-0.4c-0.2-0.1-0.4-0.2-0.7-0.2c-0.2,0-0.4,0-0.6,0
		c-0.2,0-0.3,0-0.6,0c-0.2,0-0.4,0.1-0.7,0.2c-0.2,0.1-0.5,0.2-0.7,0.4c-0.2,0.2-0.4,0.5-0.6,0.8s-0.3,0.7-0.4,1.2
		c-0.1,0.5-0.2,1-0.2,1.7C283.5,313.1,283.5,313.7,283.6,314.2L283.6,314.2z M285,311.6c0-0.3,0.1-0.7,0.2-1
		c0.1-0.3,0.3-0.6,0.5-0.8c0.2-0.2,0.5-0.3,0.9-0.3c0.4,0,0.6,0.1,0.9,0.3c0.2,0.2,0.4,0.5,0.5,0.8c0.1,0.3,0.2,0.6,0.2,1
		c0,0.3,0.1,0.7,0.1,0.9c0,0.3,0,0.6-0.1,0.9c0,0.3-0.1,0.7-0.2,1s-0.3,0.6-0.5,0.8c-0.2,0.2-0.5,0.3-0.9,0.3
		c-0.4,0-0.6-0.1-0.9-0.3c-0.2-0.2-0.4-0.5-0.5-0.8s-0.2-0.6-0.2-1c0-0.3-0.1-0.7-0.1-0.9C284.9,312.2,284.9,311.9,285,311.6
		L285,311.6z M298.6,316.7h1.4l2-6.5h0l2,6.5h1.4l2.5-8.5h-1.5l-1.7,6.1h0l-1.9-6.1h-1.5l-1.9,6.1h0l-1.6-6.1H296L298.6,316.7
		L298.6,316.7z M309.9,316.7h1.4V311h-1.4V316.7L309.9,316.7z M309.9,309.6c0.2,0.2,0.4,0.3,0.7,0.3c0.3,0,0.5-0.1,0.7-0.2
		c0.2-0.2,0.3-0.4,0.3-0.6c0-0.2-0.1-0.5-0.3-0.6c-0.2-0.2-0.4-0.2-0.7-0.2c-0.3,0-0.5,0.1-0.7,0.3c-0.2,0.2-0.3,0.4-0.3,0.6
		C309.7,309.2,309.7,309.4,309.9,309.6L309.9,309.6z M319.7,314.3V314c0-0.5-0.1-0.9-0.2-1.3c-0.1-0.4-0.3-0.7-0.6-1
		c-0.2-0.3-0.5-0.5-0.9-0.6c-0.3-0.1-0.7-0.2-1.1-0.2c-0.4,0-0.8,0.1-1.2,0.2c-0.4,0.1-0.7,0.3-1,0.6c-0.3,0.3-0.5,0.6-0.7,1
		c-0.2,0.4-0.2,0.8-0.2,1.2s0.1,0.9,0.2,1.2c0.2,0.4,0.4,0.7,0.7,1c0.3,0.3,0.6,0.5,1,0.6c0.4,0.1,0.8,0.2,1.2,0.2
		c0.5,0,0.9-0.1,1.3-0.3c0.4-0.2,0.8-0.5,1.1-0.9l-1-0.8c-0.2,0.2-0.4,0.4-0.6,0.6c-0.2,0.1-0.5,0.2-0.9,0.2c-0.4,0-0.8-0.1-1-0.4
		s-0.5-0.6-0.5-1H319.7L319.7,314.3z M315.3,313.3c0.1-0.4,0.2-0.7,0.5-1c0.3-0.2,0.6-0.4,1-0.4c0.5,0,0.8,0.1,1.1,0.4
		c0.3,0.2,0.4,0.6,0.4,1H315.3L315.3,313.3z M322.2,316.7h1.4v-3.1c0-0.2,0-0.4,0.1-0.6c0-0.2,0.1-0.3,0.2-0.5
		c0.1-0.1,0.2-0.2,0.4-0.3c0.2-0.1,0.4-0.1,0.6-0.1c0.2,0,0.4,0.1,0.6,0.2c0.1,0.1,0.2,0.3,0.3,0.4c0.1,0.2,0.1,0.4,0.1,0.6
		c0,0.2,0,0.4,0,0.5v2.9h1.4v-3.6c0-0.3,0-0.6-0.1-0.9c-0.1-0.3-0.2-0.5-0.4-0.7c-0.2-0.2-0.4-0.4-0.7-0.5c-0.3-0.1-0.6-0.2-1-0.2
		c-0.5,0-0.9,0.1-1.1,0.3c-0.3,0.2-0.5,0.5-0.6,0.8h0V311h-1.4V316.7L322.2,316.7z"/>
	<path d="M259.1,302.3h1.4v-7.1h0l2.6,7.1h1.1l2.6-7.1h0v7.1h1.4v-8.5h-2.3l-2.3,6l-2.3-6h-2.3V302.3L259.1,302.3z M274.1,302.3h1.3
		V299c0-0.1,0-0.3,0-0.5s0-0.4-0.1-0.6c0-0.2-0.1-0.4-0.2-0.6c-0.1-0.2-0.2-0.4-0.4-0.5c-0.2-0.1-0.4-0.3-0.7-0.4
		c-0.3-0.1-0.6-0.1-1-0.1c-0.5,0-0.9,0.1-1.3,0.2c-0.4,0.1-0.8,0.4-1.1,0.7l0.8,0.8c0.2-0.2,0.4-0.3,0.7-0.4
		c0.3-0.1,0.5-0.2,0.9-0.2c0.4,0,0.7,0.1,0.9,0.3c0.2,0.2,0.4,0.5,0.4,0.8v0.2h-0.4c-0.2,0-0.5,0-0.8,0c-0.3,0-0.5,0-0.8,0.1
		c-0.3,0-0.5,0.1-0.8,0.2c-0.2,0.1-0.5,0.2-0.7,0.4c-0.2,0.1-0.3,0.3-0.5,0.6c-0.1,0.2-0.2,0.5-0.2,0.8c0,0.3,0.1,0.5,0.2,0.8
		c0.1,0.2,0.3,0.4,0.5,0.5c0.2,0.1,0.4,0.3,0.7,0.3c0.3,0.1,0.5,0.1,0.8,0.1c0.4,0,0.7-0.1,1.1-0.2s0.6-0.4,0.8-0.7h0V302.3
		L274.1,302.3z M274,300.1c0,0.4-0.1,0.7-0.4,1c-0.2,0.2-0.6,0.4-1.1,0.4c-0.1,0-0.2,0-0.4,0c-0.1,0-0.2-0.1-0.3-0.1
		c-0.1-0.1-0.2-0.1-0.2-0.2c-0.1-0.1-0.1-0.2-0.1-0.3c0-0.2,0.1-0.4,0.2-0.5c0.2-0.1,0.3-0.2,0.6-0.3s0.5-0.1,0.7-0.1
		c0.2,0,0.5,0,0.7,0h0.3V300.1L274,300.1z M276.6,302.3h1.7l1.5-2.1l1.5,2.1h1.8l-2.3-3.1l2-2.7h-1.6l-1.2,1.7l-1.2-1.7h-1.8l2,2.7
		L276.6,302.3L276.6,302.3z M288.5,302.3h5.8V301H290v-2.3h3.9v-1.4H290v-2.1h4.1v-1.4h-5.6V302.3L288.5,302.3z M296.1,302.3h1.4
		v-3.1c0-0.2,0-0.4,0.1-0.6c0-0.2,0.1-0.3,0.2-0.5c0.1-0.1,0.2-0.2,0.4-0.3c0.2-0.1,0.4-0.1,0.6-0.1c0.4,0,0.6,0.1,0.8,0.3
		c0.2,0.2,0.2,0.5,0.2,0.9v3.4h1.4v-3.1c0-0.2,0-0.4,0.1-0.5c0-0.2,0.1-0.3,0.2-0.5c0.1-0.1,0.2-0.3,0.4-0.3
		c0.2-0.1,0.3-0.1,0.6-0.1c0.2,0,0.4,0,0.5,0.1c0.1,0.1,0.2,0.2,0.3,0.3c0.1,0.1,0.1,0.3,0.2,0.4c0,0.2,0,0.3,0,0.5v3.3h1.4v-3.4
		c0-0.3,0-0.7-0.1-1c-0.1-0.3-0.2-0.6-0.4-0.8c-0.2-0.2-0.4-0.4-0.6-0.5c-0.3-0.1-0.6-0.2-1-0.2c-0.4,0-0.8,0.1-1.1,0.3
		c-0.3,0.2-0.6,0.4-0.8,0.8c-0.3-0.7-0.9-1.1-1.8-1.1c-0.5,0-0.9,0.1-1.1,0.3c-0.3,0.2-0.5,0.5-0.6,0.7h0v-0.9h-1.4V302.3
		L296.1,302.3z M310.7,302.3h1.3V299c0-0.1,0-0.3,0-0.5s0-0.4-0.1-0.6c0-0.2-0.1-0.4-0.2-0.6c-0.1-0.2-0.2-0.4-0.4-0.5
		c-0.2-0.1-0.4-0.3-0.7-0.4c-0.3-0.1-0.6-0.1-1-0.1c-0.5,0-0.9,0.1-1.3,0.2c-0.4,0.1-0.8,0.4-1.1,0.7l0.8,0.8
		c0.2-0.2,0.4-0.3,0.7-0.4c0.3-0.1,0.5-0.2,0.9-0.2c0.4,0,0.7,0.1,0.9,0.3c0.2,0.2,0.4,0.5,0.4,0.8v0.2h-0.4c-0.2,0-0.5,0-0.8,0
		c-0.3,0-0.5,0-0.8,0.1c-0.3,0-0.5,0.1-0.8,0.2c-0.2,0.1-0.5,0.2-0.7,0.4c-0.2,0.1-0.3,0.3-0.5,0.6c-0.1,0.2-0.2,0.5-0.2,0.8
		c0,0.3,0.1,0.5,0.2,0.8s0.3,0.4,0.5,0.5c0.2,0.1,0.4,0.3,0.7,0.3c0.3,0.1,0.5,0.1,0.8,0.1c0.4,0,0.7-0.1,1.1-0.2s0.6-0.4,0.8-0.7h0
		V302.3L310.7,302.3z M310.6,300.1c0,0.4-0.1,0.7-0.4,1c-0.2,0.2-0.6,0.4-1.1,0.4c-0.1,0-0.2,0-0.4,0c-0.1,0-0.2-0.1-0.3-0.1
		c-0.1-0.1-0.2-0.1-0.2-0.2c-0.1-0.1-0.1-0.2-0.1-0.3c0-0.2,0.1-0.4,0.2-0.5c0.2-0.1,0.3-0.2,0.6-0.3c0.2-0.1,0.5-0.1,0.7-0.1
		c0.2,0,0.5,0,0.7,0h0.3V300.1L310.6,300.1z M314,302.3h1.4v-3.1c0-0.2,0-0.4,0.1-0.6c0-0.2,0.1-0.3,0.2-0.5
		c0.1-0.1,0.2-0.2,0.4-0.3c0.2-0.1,0.4-0.1,0.6-0.1c0.2,0,0.4,0.1,0.6,0.2c0.1,0.1,0.2,0.3,0.3,0.4c0.1,0.2,0.1,0.4,0.1,0.6
		c0,0.2,0,0.4,0,0.5v2.9h1.4v-3.6c0-0.3,0-0.6-0.1-0.9c-0.1-0.3-0.2-0.5-0.4-0.7c-0.2-0.2-0.4-0.4-0.7-0.5c-0.3-0.1-0.6-0.2-1-0.2
		c-0.5,0-0.9,0.1-1.1,0.3c-0.3,0.2-0.5,0.5-0.6,0.8h0v-0.9H314V302.3L314,302.3z M326.6,296.6h-1.4v3.1c0,0.2,0,0.4-0.1,0.6
		c0,0.2-0.1,0.3-0.2,0.5c-0.1,0.1-0.2,0.2-0.4,0.3c-0.2,0.1-0.4,0.1-0.6,0.1c-0.3,0-0.5-0.1-0.6-0.2c-0.1-0.1-0.2-0.3-0.3-0.4
		c-0.1-0.2-0.1-0.4-0.1-0.6c0-0.2,0-0.4,0-0.5v-2.9h-1.4v3.6c0,0.3,0,0.6,0.1,0.9c0.1,0.3,0.2,0.5,0.4,0.7c0.2,0.2,0.4,0.4,0.7,0.5
		c0.3,0.1,0.6,0.2,1,0.2c0.5,0,0.9-0.1,1.1-0.3c0.3-0.2,0.5-0.5,0.6-0.8h0v0.9h1.4V296.6L326.6,296.6z M334.3,299.9v-0.4
		c0-0.5-0.1-0.9-0.2-1.3c-0.1-0.4-0.3-0.7-0.6-1c-0.2-0.3-0.5-0.5-0.9-0.6c-0.3-0.1-0.7-0.2-1.1-0.2c-0.4,0-0.8,0.1-1.2,0.2
		c-0.4,0.1-0.7,0.3-1,0.6c-0.3,0.3-0.5,0.6-0.7,1c-0.2,0.4-0.2,0.8-0.2,1.2s0.1,0.9,0.2,1.2c0.2,0.4,0.4,0.7,0.7,1
		c0.3,0.3,0.6,0.5,1,0.6c0.4,0.1,0.8,0.2,1.2,0.2c0.5,0,0.9-0.1,1.3-0.3c0.4-0.2,0.8-0.5,1.1-0.9l-1-0.8c-0.2,0.2-0.4,0.4-0.6,0.6
		c-0.2,0.1-0.5,0.2-0.9,0.2c-0.4,0-0.8-0.1-1-0.4c-0.3-0.2-0.5-0.6-0.5-1H334.3L334.3,299.9z M329.9,298.9c0.1-0.4,0.2-0.7,0.5-1
		c0.3-0.2,0.6-0.4,1-0.4c0.5,0,0.8,0.1,1.1,0.4c0.3,0.2,0.4,0.6,0.4,1H329.9L329.9,298.9z M336.1,302.3h1.4v-9.1h-1.4V302.3
		L336.1,302.3z M343.8,297.3c-0.2-0.3-0.5-0.5-0.9-0.7c-0.4-0.1-0.8-0.2-1.1-0.2c-0.3,0-0.6,0-0.9,0.1c-0.3,0.1-0.5,0.2-0.7,0.3
		c-0.2,0.2-0.4,0.3-0.5,0.6c-0.1,0.2-0.2,0.5-0.2,0.8c0,0.4,0.1,0.7,0.2,0.9c0.2,0.2,0.3,0.4,0.6,0.5c0.2,0.1,0.5,0.2,0.8,0.3
		c0.3,0.1,0.5,0.1,0.8,0.2s0.4,0.1,0.6,0.2c0.2,0.1,0.2,0.2,0.2,0.4c0,0.1,0,0.2-0.1,0.3c-0.1,0.1-0.1,0.2-0.2,0.2
		c-0.1,0.1-0.2,0.1-0.3,0.1c-0.1,0-0.2,0-0.3,0c-0.3,0-0.6-0.1-0.8-0.2c-0.2-0.1-0.4-0.3-0.6-0.5l-1,0.9c0.3,0.3,0.6,0.6,1,0.7
		c0.4,0.1,0.8,0.2,1.2,0.2c0.3,0,0.6,0,0.9-0.1c0.3-0.1,0.6-0.2,0.8-0.3c0.2-0.1,0.4-0.3,0.6-0.6c0.1-0.2,0.2-0.5,0.2-0.9
		c0-0.4-0.1-0.7-0.2-0.9c-0.2-0.2-0.3-0.4-0.6-0.5c-0.2-0.1-0.5-0.2-0.8-0.3c-0.3-0.1-0.5-0.1-0.8-0.2c-0.2-0.1-0.4-0.1-0.6-0.2
		c-0.2-0.1-0.2-0.2-0.2-0.4c0-0.2,0.1-0.4,0.3-0.5s0.4-0.1,0.6-0.1c0.5,0,0.8,0.2,1.1,0.6L343.8,297.3L343.8,297.3z M346,297.8v2.6
		c0,0.3,0,0.6,0.1,0.9c0.1,0.3,0.1,0.5,0.3,0.6c0.1,0.2,0.3,0.3,0.6,0.4c0.2,0.1,0.6,0.1,0.9,0.1c0.2,0,0.4,0,0.6,0
		c0.2,0,0.4-0.1,0.6-0.1v-1.2c-0.1,0.1-0.2,0.1-0.4,0.1c-0.2,0-0.3,0-0.4,0c-0.3,0-0.5-0.1-0.6-0.3c-0.1-0.2-0.2-0.4-0.2-0.7v-2.5
		h1.6v-1.2h-1.6v-1.7H346v1.7h-1.2v1.2H346L346,297.8z M350.7,302.3h1.4v-3.1c0-0.1,0-0.2,0.1-0.4c0-0.2,0.1-0.3,0.2-0.5
		c0.1-0.2,0.3-0.3,0.5-0.4c0.2-0.1,0.5-0.2,0.8-0.2c0.1,0,0.2,0,0.3,0c0.1,0,0.2,0,0.4,0.1v-1.4l-0.3-0.1l-0.3,0
		c-0.4,0-0.7,0.1-1,0.3c-0.3,0.2-0.5,0.4-0.7,0.8h0v-0.9h-1.4V302.3L350.7,302.3z M354.8,301.8c0.1,0.1,0.1,0.2,0.2,0.3
		c0.1,0.1,0.2,0.1,0.3,0.2c0.1,0,0.2,0.1,0.4,0.1c0.3,0,0.5-0.1,0.7-0.3c0.2-0.2,0.3-0.4,0.3-0.7c0-0.3-0.1-0.5-0.3-0.6
		c-0.2-0.2-0.4-0.3-0.7-0.3c-0.3,0-0.5,0.1-0.7,0.3c-0.2,0.2-0.3,0.4-0.3,0.7C354.7,301.6,354.8,301.7,354.8,301.8L354.8,301.8z
		 M365.2,302.3h1.4v-8.5h-1.3l-2.6,2.1l0.8,1l1.6-1.5V302.3L365.2,302.3z M370.1,295.2h4.2l-3.5,7.1h1.7l3.4-7.2v-1.3h-5.8V295.2
		L370.1,295.2z"/>
	<path d="M258.8,243.7h3.4l1.5-3.9h7.4l1.6,3.9h3.5l-7.3-17h-2.6L258.8,243.7L258.8,243.7z M264.8,237.2l2.7-6.9l2.6,6.9H264.8
		L264.8,237.2z M278,243.7h2.7V242h0c0.4,0.7,1,1.2,1.7,1.5c0.7,0.3,1.5,0.5,2.3,0.5c0.9,0,1.7-0.2,2.4-0.5c0.7-0.3,1.3-0.7,1.8-1.3
		c0.5-0.5,0.9-1.2,1.1-1.9c0.3-0.7,0.4-1.5,0.4-2.4s-0.1-1.6-0.4-2.4c-0.3-0.7-0.7-1.4-1.1-1.9c-0.5-0.5-1.1-1-1.8-1.3
		c-0.7-0.3-1.4-0.5-2.3-0.5c-0.5,0-1,0.1-1.4,0.2s-0.8,0.3-1.1,0.4c-0.3,0.2-0.6,0.4-0.8,0.6c-0.2,0.2-0.4,0.4-0.6,0.6h-0.1v-8.1
		H278V243.7L278,243.7z M287.4,239.3c-0.2,0.4-0.4,0.8-0.7,1.1c-0.3,0.3-0.7,0.6-1.1,0.8c-0.4,0.2-0.9,0.3-1.4,0.3
		c-0.5,0-1-0.1-1.4-0.3c-0.4-0.2-0.8-0.4-1.1-0.8c-0.3-0.3-0.5-0.7-0.7-1.1c-0.2-0.4-0.2-0.8-0.2-1.3s0.1-0.9,0.2-1.3
		c0.2-0.4,0.4-0.8,0.7-1.1c0.3-0.3,0.7-0.6,1.1-0.8c0.4-0.2,0.9-0.3,1.4-0.3c0.5,0,1,0.1,1.4,0.3c0.4,0.2,0.8,0.4,1.1,0.8
		c0.3,0.3,0.5,0.7,0.7,1.1c0.2,0.4,0.2,0.8,0.2,1.3S287.5,238.8,287.4,239.3L287.4,239.3z M300.5,243.7h11.4v-2.6H304l5.3-4.9
		c0.8-0.7,1.4-1.4,1.9-2.2c0.5-0.8,0.7-1.7,0.7-2.8c0-0.8-0.1-1.5-0.4-2.1c-0.3-0.6-0.7-1.1-1.2-1.5c-0.5-0.4-1.1-0.7-1.7-0.9
		c-0.7-0.2-1.4-0.3-2.1-0.3s-1.5,0.1-2.1,0.3c-0.7,0.2-1.2,0.5-1.7,0.9c-0.5,0.4-0.9,0.9-1.2,1.5c-0.3,0.6-0.5,1.3-0.6,2.1l3,0.2
		c0.1-0.7,0.4-1.3,0.8-1.7c0.5-0.4,1.1-0.6,1.8-0.6c0.3,0,0.7,0.1,0.9,0.2c0.3,0.1,0.6,0.3,0.8,0.4c0.2,0.2,0.4,0.4,0.5,0.7
		c0.1,0.3,0.2,0.6,0.2,0.9c0,0.3-0.1,0.6-0.2,0.8s-0.3,0.5-0.4,0.8c-0.2,0.2-0.4,0.5-0.6,0.7s-0.4,0.4-0.6,0.6l-6.6,6.4V243.7
		L300.5,243.7z M314.8,238.7c0.2,1,0.5,1.8,0.9,2.4c0.4,0.6,0.7,1.2,1.2,1.6c0.4,0.4,0.9,0.7,1.3,0.9c0.5,0.2,0.9,0.3,1.3,0.4
		c0.4,0.1,0.8,0.1,1.1,0.1s0.7,0,1.1-0.1c0.4-0.1,0.9-0.2,1.3-0.4c0.5-0.2,0.9-0.5,1.3-0.9s0.8-0.9,1.2-1.6c0.4-0.6,0.6-1.4,0.9-2.4
		c0.2-1,0.3-2.1,0.3-3.4c0-1.3-0.1-2.5-0.3-3.4c-0.2-1-0.5-1.8-0.9-2.4c-0.4-0.6-0.7-1.2-1.2-1.6c-0.4-0.4-0.9-0.7-1.3-0.9
		c-0.5-0.2-0.9-0.3-1.3-0.4c-0.4-0.1-0.8-0.1-1.1-0.1s-0.7,0-1.1,0.1c-0.4,0.1-0.9,0.2-1.3,0.4c-0.5,0.2-0.9,0.5-1.3,0.9
		c-0.4,0.4-0.8,0.9-1.2,1.6c-0.4,0.6-0.6,1.4-0.9,2.4c-0.2,1-0.3,2.1-0.3,3.4C314.5,236.6,314.6,237.7,314.8,238.7L314.8,238.7z
		 M317.5,233.4c0.1-0.7,0.2-1.4,0.4-2c0.2-0.6,0.6-1.2,1-1.6c0.4-0.4,1-0.6,1.7-0.6s1.3,0.2,1.7,0.6c0.4,0.4,0.8,1,1,1.6
		c0.2,0.6,0.4,1.3,0.4,2c0.1,0.7,0.1,1.3,0.1,1.8c0,0.5,0,1.1-0.1,1.8c-0.1,0.7-0.2,1.4-0.4,2c-0.2,0.6-0.6,1.2-1,1.6
		c-0.4,0.4-1,0.6-1.7,0.6s-1.3-0.2-1.7-0.6c-0.4-0.4-0.8-1-1-1.6c-0.2-0.6-0.4-1.3-0.4-2c-0.1-0.7-0.1-1.3-0.1-1.8
		C317.3,234.7,317.4,234.1,317.5,233.4L317.5,233.4z M350.7,226.7h-3v10.7c0,0.4-0.1,0.9-0.2,1.3c-0.1,0.5-0.3,0.9-0.6,1.3
		c-0.3,0.4-0.7,0.7-1.2,0.9c-0.5,0.2-1.1,0.4-1.8,0.4s-1.3-0.1-1.8-0.4c-0.5-0.2-0.9-0.6-1.2-0.9c-0.3-0.4-0.5-0.8-0.6-1.3
		s-0.2-0.9-0.2-1.3v-10.7h-3v10.8c0,1,0.2,1.9,0.5,2.8c0.3,0.8,0.8,1.5,1.4,2.1c0.6,0.6,1.3,1,2.2,1.3c0.8,0.3,1.7,0.5,2.7,0.5
		c1,0,1.9-0.2,2.7-0.5c0.8-0.3,1.6-0.8,2.2-1.3c0.6-0.6,1.1-1.3,1.4-2.1c0.4-0.8,0.5-1.7,0.5-2.8V226.7L350.7,226.7z M357.3,225.6
		h-2.9v18.1h2.9v-6.3c0-0.4,0-0.8,0.1-1.1c0.1-0.4,0.3-0.7,0.5-0.9s0.5-0.5,0.8-0.6c0.3-0.2,0.7-0.2,1.2-0.2c0.5,0,0.9,0.1,1.2,0.3
		s0.5,0.5,0.6,0.9c0.1,0.3,0.2,0.7,0.3,1.1c0,0.4,0,0.7,0,1.1v5.8h2.9v-7.3c0-0.6-0.1-1.2-0.2-1.7c-0.1-0.5-0.4-1-0.7-1.4
		c-0.3-0.4-0.8-0.8-1.3-1c-0.5-0.3-1.2-0.4-2-0.4c-0.9,0-1.6,0.2-2.2,0.6c-0.6,0.4-1,0.8-1.2,1.3h0V225.6L357.3,225.6z M368.5,243.7
		h2.9v-6.2c0-0.2,0-0.4,0.1-0.7s0.2-0.6,0.4-1c0.2-0.3,0.5-0.6,0.9-0.9s0.9-0.4,1.6-0.4c0.2,0,0.5,0,0.7,0.1c0.2,0,0.5,0.1,0.7,0.2
		v-2.8c-0.2,0-0.3-0.1-0.5-0.1c-0.2,0-0.3,0-0.5,0c-0.8,0-1.4,0.2-2,0.6c-0.6,0.4-1,0.9-1.4,1.6h0v-1.8h-2.9V243.7L368.5,243.7z"/>
	<path d="M260.3,214.7h11.4v-2.6h-7.9l5.3-4.9c0.8-0.7,1.4-1.4,1.9-2.2c0.5-0.8,0.7-1.7,0.7-2.8c0-0.8-0.1-1.5-0.4-2.1
		c-0.3-0.6-0.7-1.1-1.2-1.5c-0.5-0.4-1.1-0.7-1.7-0.9c-0.7-0.2-1.4-0.3-2.1-0.3c-0.8,0-1.5,0.1-2.1,0.3c-0.7,0.2-1.2,0.5-1.7,0.9
		c-0.5,0.4-0.9,0.9-1.2,1.5c-0.3,0.6-0.5,1.3-0.6,2.1l3,0.2c0.1-0.7,0.4-1.3,0.8-1.7c0.5-0.4,1.1-0.6,1.8-0.6c0.3,0,0.7,0.1,0.9,0.2
		c0.3,0.1,0.6,0.3,0.8,0.4c0.2,0.2,0.4,0.4,0.5,0.7c0.1,0.3,0.2,0.6,0.2,0.9c0,0.3-0.1,0.6-0.2,0.8c-0.1,0.3-0.3,0.5-0.4,0.8
		c-0.2,0.2-0.4,0.5-0.6,0.7s-0.4,0.4-0.6,0.6l-6.6,6.4V214.7L260.3,214.7z M274.6,209.7c0.2,1,0.5,1.8,0.9,2.4
		c0.4,0.6,0.7,1.2,1.2,1.6s0.9,0.7,1.3,0.9c0.5,0.2,0.9,0.3,1.3,0.4c0.4,0.1,0.8,0.1,1.1,0.1c0.3,0,0.7,0,1.1-0.1
		c0.4-0.1,0.9-0.2,1.3-0.4c0.5-0.2,0.9-0.5,1.3-0.9s0.8-0.9,1.2-1.6c0.4-0.6,0.6-1.4,0.9-2.4c0.2-1,0.3-2.1,0.3-3.4
		s-0.1-2.5-0.3-3.4c-0.2-1-0.5-1.8-0.9-2.4c-0.4-0.6-0.7-1.2-1.2-1.6c-0.4-0.4-0.9-0.7-1.3-0.9c-0.5-0.2-0.9-0.3-1.3-0.4
		c-0.4-0.1-0.8-0.1-1.1-0.1c-0.3,0-0.7,0-1.1,0.1c-0.4,0.1-0.9,0.2-1.3,0.4c-0.5,0.2-0.9,0.5-1.3,0.9c-0.4,0.4-0.8,0.9-1.2,1.6
		c-0.4,0.6-0.6,1.4-0.9,2.4c-0.2,1-0.3,2.1-0.3,3.4S274.4,208.7,274.6,209.7L274.6,209.7z M277.2,204.4c0.1-0.7,0.2-1.4,0.4-2
		c0.2-0.6,0.6-1.2,1-1.6c0.4-0.4,1-0.6,1.7-0.6s1.3,0.2,1.7,0.6c0.4,0.4,0.8,1,1,1.6c0.2,0.6,0.4,1.3,0.4,2c0.1,0.7,0.1,1.3,0.1,1.8
		c0,0.5,0,1.1-0.1,1.8c-0.1,0.7-0.2,1.4-0.4,2c-0.2,0.6-0.6,1.2-1,1.6c-0.4,0.4-1,0.6-1.7,0.6s-1.3-0.2-1.7-0.6
		c-0.4-0.4-0.8-1-1-1.6c-0.2-0.6-0.4-1.3-0.4-2s-0.1-1.3-0.1-1.8C277.1,205.7,277.2,205.1,277.2,204.4L277.2,204.4z M294.2,214.7
		h2.9v-17h-2.6l-5.1,4.3l1.7,2l3.2-3V214.7L294.2,214.7z M309.4,214.7l4.3-6.8c0.5-0.8,0.8-1.5,1.1-2.2c0.3-0.7,0.4-1.5,0.4-2.4
		c0-0.9-0.1-1.7-0.4-2.4c-0.3-0.7-0.7-1.3-1.2-1.8c-0.5-0.5-1.2-0.9-1.9-1.1c-0.7-0.3-1.6-0.4-2.4-0.4c-0.9,0-1.7,0.1-2.4,0.4
		c-0.7,0.3-1.4,0.7-1.9,1.2s-1,1.1-1.3,1.8s-0.5,1.5-0.5,2.4c0,0.7,0.1,1.4,0.4,2.1c0.2,0.7,0.6,1.2,1.1,1.7c0.5,0.5,1,0.9,1.6,1.2
		c0.6,0.3,1.3,0.4,2.1,0.4c0.3,0,0.6,0,0.9-0.1c0.3,0,0.5-0.1,0.7-0.2l0,0l-4.1,6.3H309.4L309.4,214.7z M312.1,204.5
		c-0.2,0.4-0.4,0.7-0.7,1c-0.3,0.3-0.6,0.5-1,0.7s-0.8,0.2-1.2,0.2s-0.8-0.1-1.2-0.2c-0.4-0.2-0.7-0.4-1-0.7c-0.3-0.3-0.5-0.6-0.7-1
		c-0.2-0.4-0.2-0.8-0.2-1.2c0-0.4,0.1-0.8,0.2-1.2c0.2-0.4,0.4-0.7,0.7-1c0.3-0.3,0.6-0.5,1-0.7c0.4-0.2,0.8-0.2,1.2-0.2
		s0.8,0.1,1.2,0.2s0.7,0.4,1,0.7c0.3,0.3,0.5,0.6,0.7,1c0.2,0.4,0.2,0.8,0.2,1.2C312.3,203.7,312.2,204.1,312.1,204.5L312.1,204.5z"
		/>
	<path d="M260.3,185.7h11.4v-2.6h-7.9l5.3-4.9c0.8-0.7,1.4-1.4,1.9-2.2c0.5-0.8,0.7-1.7,0.7-2.8c0-0.8-0.1-1.5-0.4-2.1
		c-0.3-0.6-0.7-1.1-1.2-1.5c-0.5-0.4-1.1-0.7-1.7-0.9c-0.7-0.2-1.4-0.3-2.1-0.3c-0.8,0-1.5,0.1-2.1,0.3c-0.7,0.2-1.2,0.5-1.7,0.9
		c-0.5,0.4-0.9,0.9-1.2,1.5c-0.3,0.6-0.5,1.3-0.6,2.1l3,0.2c0.1-0.7,0.4-1.3,0.8-1.7c0.5-0.4,1.1-0.6,1.8-0.6c0.3,0,0.7,0.1,0.9,0.2
		c0.3,0.1,0.6,0.3,0.8,0.4c0.2,0.2,0.4,0.4,0.5,0.7c0.1,0.3,0.2,0.6,0.2,0.9c0,0.3-0.1,0.6-0.2,0.8c-0.1,0.3-0.3,0.5-0.4,0.8
		c-0.2,0.2-0.4,0.5-0.6,0.7c-0.2,0.2-0.4,0.4-0.6,0.6l-6.6,6.4V185.7L260.3,185.7z M274.7,185.7h11.4v-2.6h-7.9l5.3-4.9
		c0.8-0.7,1.4-1.4,1.9-2.2c0.5-0.8,0.7-1.7,0.7-2.8c0-0.8-0.1-1.5-0.4-2.1s-0.7-1.1-1.2-1.5c-0.5-0.4-1.1-0.7-1.7-0.9
		c-0.7-0.2-1.4-0.3-2.1-0.3c-0.8,0-1.5,0.1-2.1,0.3c-0.7,0.2-1.2,0.5-1.7,0.9c-0.5,0.4-0.9,0.9-1.2,1.5c-0.3,0.6-0.5,1.3-0.6,2.1
		l3,0.2c0.1-0.7,0.4-1.3,0.8-1.7c0.5-0.4,1.1-0.6,1.8-0.6c0.3,0,0.7,0.1,0.9,0.2c0.3,0.1,0.6,0.3,0.8,0.4c0.2,0.2,0.4,0.4,0.5,0.7
		c0.1,0.3,0.2,0.6,0.2,0.9c0,0.3-0.1,0.6-0.2,0.8c-0.1,0.3-0.3,0.5-0.4,0.8c-0.2,0.2-0.4,0.5-0.6,0.7c-0.2,0.2-0.4,0.4-0.6,0.6
		l-6.6,6.4V185.7L274.7,185.7z M289.5,184.8c0.1,0.2,0.2,0.4,0.4,0.6c0.2,0.2,0.4,0.3,0.6,0.4c0.2,0.1,0.5,0.1,0.7,0.1
		c0.5,0,1-0.2,1.4-0.6s0.6-0.8,0.6-1.3s-0.2-0.9-0.6-1.3c-0.4-0.4-0.8-0.5-1.3-0.5c-0.5,0-1,0.2-1.4,0.6c-0.4,0.4-0.6,0.8-0.6,1.3
		C289.4,184.3,289.4,184.5,289.5,184.8L289.5,184.8z M312.7,168.7h-3v11.4c0,1-0.2,1.8-0.5,2.4c-0.3,0.6-0.9,0.9-1.8,0.9
		c-0.5,0-1-0.2-1.3-0.5c-0.4-0.3-0.6-0.8-0.7-1.3l-2.8,0.7c0.3,1.4,0.8,2.4,1.7,3c0.9,0.6,2,0.9,3.3,0.9c0.8,0,1.6-0.1,2.2-0.4
		c0.6-0.3,1.2-0.7,1.6-1.1c0.4-0.5,0.7-1,1-1.6c0.2-0.6,0.3-1.3,0.3-1.9V168.7L312.7,168.7z M326.8,174.2h-2.9v6.3
		c0,0.4,0,0.8-0.1,1.1s-0.3,0.7-0.5,0.9s-0.5,0.5-0.8,0.6c-0.3,0.2-0.7,0.2-1.2,0.2c-0.5,0-0.9-0.1-1.2-0.3
		c-0.3-0.2-0.5-0.5-0.6-0.9c-0.1-0.3-0.2-0.7-0.3-1.1c0-0.4,0-0.7,0-1.1v-5.8h-2.9v7.3c0,0.6,0.1,1.2,0.2,1.7c0.1,0.5,0.4,1,0.7,1.5
		c0.3,0.4,0.8,0.8,1.3,1c0.5,0.2,1.2,0.4,2,0.4c1,0,1.7-0.2,2.3-0.6c0.6-0.4,1-0.9,1.2-1.5h0v1.8h2.7V174.2L326.8,174.2z
		 M330.3,185.7h2.9v-6.3c0-0.4,0-0.8,0.1-1.1c0.1-0.4,0.3-0.7,0.5-0.9c0.2-0.3,0.5-0.5,0.8-0.6c0.3-0.2,0.7-0.2,1.2-0.2
		c0.5,0,0.9,0.1,1.2,0.3c0.3,0.2,0.5,0.5,0.6,0.9c0.1,0.3,0.2,0.7,0.3,1.1c0,0.4,0,0.7,0,1.1v5.8h2.9v-7.3c0-0.6-0.1-1.2-0.2-1.7
		c-0.1-0.5-0.4-1-0.7-1.4c-0.3-0.4-0.8-0.8-1.3-1c-0.5-0.3-1.2-0.4-2-0.4c-1,0-1.7,0.2-2.3,0.6c-0.6,0.4-1,0.9-1.2,1.5h0v-1.8h-2.7
		V185.7L330.3,185.7z M344.4,185.7h2.9v-11.5h-2.9V185.7L344.4,185.7z M344.5,171.5c0.3,0.3,0.8,0.5,1.3,0.5c0.5,0,1-0.2,1.3-0.5
		c0.4-0.3,0.5-0.7,0.5-1.2s-0.2-0.9-0.5-1.2c-0.4-0.3-0.8-0.5-1.3-0.5c-0.5,0-1,0.2-1.3,0.5c-0.3,0.3-0.5,0.7-0.5,1.2
		S344.1,171.2,344.5,171.5L344.5,171.5z"/>
	<path d="M46.5,96.3C45.3,95,43.8,94,42,93.4c-1.8-0.6-3.6-0.9-5.5-0.9c-1.7,0-3.4,0.2-5.1,0.7c-1.7,0.5-3.2,1.1-4.7,2.1
		c-1.4,0.9-2.6,2.1-3.6,3.5c-1,1.4-1.6,3-1.9,4.9c-0.3,2.2-0.1,3.9,0.6,5.2c0.7,1.3,1.6,2.3,2.8,3.1c1.2,0.8,2.5,1.4,3.9,1.8
		c1.4,0.5,2.8,0.9,4,1.4c1.2,0.5,2.2,1.1,3,1.8c0.8,0.7,1.1,1.8,0.9,3.1c-0.1,0.8-0.5,1.6-0.9,2.2c-0.5,0.6-1.1,1.2-1.7,1.6
		s-1.4,0.7-2.2,0.9s-1.6,0.3-2.3,0.3c-1.5,0-2.8-0.3-4-1c-1.2-0.7-2.1-1.6-2.8-2.8l-5.6,4.8c1.3,1.8,2.9,3.1,4.9,3.8
		c2,0.8,4.2,1.1,6.4,1.1c1.8,0,3.6-0.2,5.3-0.7c1.7-0.5,3.2-1.2,4.6-2.2c1.4-1,2.5-2.2,3.5-3.7c0.9-1.5,1.5-3.2,1.8-5.2
		c0.3-2.2,0.1-3.9-0.5-5.3c-0.7-1.3-1.6-2.4-2.8-3.2c-1.2-0.8-2.5-1.4-4-1.9c-1.4-0.5-2.8-0.9-4-1.4c-1.2-0.5-2.2-1.1-3-1.7
		c-0.8-0.7-1.1-1.6-0.9-2.9c0.1-0.8,0.4-1.6,0.8-2.2c0.4-0.6,1-1.1,1.6-1.5c0.6-0.4,1.3-0.7,2.1-0.8c0.7-0.2,1.5-0.3,2.3-0.3
		c1.3,0,2.5,0.2,3.5,0.7c1.1,0.5,1.9,1.2,2.5,2.2L46.5,96.3L46.5,96.3z M86.7,98.4c-1.6-2.1-3.3-3.6-5.3-4.5c-2-0.9-4.2-1.3-6.7-1.3
		c-2.8,0-5.5,0.5-8,1.4c-2.5,0.9-4.7,2.2-6.7,3.9c-2,1.7-3.6,3.8-4.9,6.2c-1.3,2.4-2.2,5.1-2.6,8c-0.4,2.9-0.3,5.5,0.3,7.9
		c0.6,2.4,1.7,4.4,3.2,6.1c1.5,1.7,3.3,3,5.6,3.9c2.3,0.9,4.8,1.4,7.6,1.4c2.7,0,5.3-0.5,7.9-1.6c2.5-1,4.8-2.7,6.8-5l-4.9-3.8
		c-1.5,1.6-2.9,2.7-4.4,3.4c-1.5,0.7-3,1.1-4.5,1.1c-1.9,0-3.6-0.3-5-1c-1.5-0.7-2.7-1.6-3.6-2.9c-0.9-1.2-1.6-2.7-2-4.3
		c-0.4-1.7-0.4-3.5-0.1-5.5c0.2-1.8,0.8-3.6,1.6-5.1c0.8-1.6,1.9-3,3.2-4.2c1.3-1.2,2.7-2.1,4.4-2.8c1.6-0.7,3.4-1,5.3-1
		c1.3,0,2.5,0.2,3.7,0.7c1.2,0.5,2.4,1.5,3.5,2.9L86.7,98.4L86.7,98.4z M90.6,130.3h6.6l2.2-16.2h17.2l-2.2,16.2h6.6l5.1-36.8h-6.6
		l-2.1,14.7h-17.2l2.1-14.7h-6.6L90.6,130.3L90.6,130.3z M128.1,130.3h7.3l4.5-8.4h16l2.3,8.4h7.5L155,93.5h-5.7L128.1,130.3
		L128.1,130.3z M142.9,116.3l7.9-15l3.5,15H142.9L142.9,116.3z M172.9,130.3h6.6l2.1-15.2h4.7c1.9,0,3.8-0.1,5.6-0.4
		c1.8-0.3,3.5-0.8,4.9-1.6c1.5-0.8,2.7-1.9,3.7-3.3c1-1.4,1.7-3.3,2-5.6c0.3-2,0.1-3.8-0.4-5.1c-0.6-1.4-1.4-2.5-2.5-3.3
		c-1.1-0.8-2.5-1.4-4.1-1.7c-1.6-0.3-3.3-0.5-5-0.5H178L172.9,130.3L172.9,130.3z M182.3,109.5l1.5-10.3h4.7c0.9,0,1.8,0.1,2.7,0.2
		c0.9,0.1,1.7,0.3,2.4,0.7c0.7,0.4,1.3,0.9,1.6,1.6c0.4,0.7,0.5,1.6,0.4,2.7c-0.2,1.2-0.6,2.2-1.2,2.9c-0.6,0.7-1.4,1.2-2.3,1.6
		c-0.9,0.3-1.8,0.6-2.9,0.6c-1,0.1-2,0.1-2.9,0.1H182.3L182.3,109.5z M207.6,130.3h6.6l5.1-36.8h-6.6L207.6,130.3L207.6,130.3z
		 M225.4,130.3h6.6l2.2-15.6h4.8l6.3,15.6h7.9l-7.5-16.3c1.4-0.2,2.7-0.6,3.8-1.1c1.1-0.6,2.1-1.3,3-2.1c0.9-0.9,1.5-1.9,2.1-3
		s0.9-2.4,1.1-3.7c0.3-2.1,0.2-3.8-0.4-5.1c-0.6-1.4-1.4-2.4-2.6-3.2c-1.2-0.8-2.6-1.4-4.2-1.7c-1.6-0.3-3.3-0.5-5.1-0.5h-12.8
		L225.4,130.3L225.4,130.3z M234.8,109.1l1.4-10h5.7c0.8,0,1.7,0.1,2.5,0.2c0.9,0.1,1.6,0.3,2.3,0.7c0.7,0.3,1.2,0.8,1.6,1.5
		c0.4,0.7,0.5,1.5,0.3,2.6c-0.2,1.2-0.6,2.2-1.1,2.8c-0.6,0.7-1.3,1.2-2.1,1.5c-0.8,0.3-1.7,0.5-2.7,0.6c-1,0.1-1.9,0.1-2.8,0.1
		H234.8L234.8,109.1z M257.1,130.3h7.3l4.5-8.4h16l2.3,8.4h7.5l-10.7-36.8h-5.7L257.1,130.3L257.1,130.3z M271.9,116.3l7.9-15
		l3.5,15H271.9L271.9,116.3z"/>
	<path d="M29.1,77.3h5.7l20-36.8h-7.1L33.5,68.3l-6.1-27.8h-7.5L29.1,77.3L29.1,77.3z M56.6,77.3h6.6l5.1-36.8h-6.6L56.6,77.3
		L56.6,77.3z M74.3,77.3h22.2l0.8-5.9H81.7L86,40.5h-6.6L74.3,77.3L74.3,77.3z M104.4,77.3h22.2l0.8-5.9h-15.7l4.3-30.9h-6.6
		L104.4,77.3L104.4,77.3z M130.4,77.3h7.3l4.5-8.4h16l2.3,8.4h7.5l-10.7-36.8h-5.7L130.4,77.3L130.4,77.3z M145.2,63.3l7.9-15
		l3.5,15H145.2L145.2,63.3z"/>
	<polygon points="162.5,187.7 164,187.7 164,179.3 162.7,179.3 160.1,181.4 160.9,182.4 162.5,180.9 162.5,187.7 	"/>
	<path d="M175.1,187.7h6.5v-1.4h-4.6l4.6-5.8v-1.4h-6.3v1.4h4.5l-4.5,5.8V187.7L175.1,187.7z M183,187.7h1.5v-8.5H183V187.7
		L183,187.7z M191.8,179.9c-0.3-0.3-0.7-0.5-1.1-0.7c-0.4-0.1-0.9-0.2-1.3-0.2c-0.4,0-0.8,0.1-1.2,0.2c-0.4,0.1-0.7,0.3-1,0.5
		c-0.3,0.2-0.5,0.5-0.7,0.8c-0.2,0.3-0.3,0.7-0.3,1.1c0,0.5,0.1,0.9,0.3,1.2c0.2,0.3,0.4,0.5,0.7,0.7c0.3,0.2,0.6,0.3,1,0.4
		c0.4,0.1,0.7,0.2,1,0.3s0.5,0.3,0.7,0.4c0.2,0.2,0.3,0.4,0.3,0.7c0,0.2,0,0.4-0.1,0.5c-0.1,0.1-0.2,0.3-0.3,0.4
		c-0.1,0.1-0.3,0.2-0.5,0.2s-0.4,0.1-0.5,0.1c-0.3,0-0.7-0.1-1-0.2c-0.3-0.2-0.5-0.4-0.7-0.7l-1.1,1.1c0.4,0.4,0.8,0.7,1.3,0.9
		c0.5,0.2,1,0.3,1.5,0.3c0.4,0,0.8-0.1,1.2-0.2c0.4-0.1,0.7-0.3,1-0.5c0.3-0.2,0.5-0.5,0.7-0.8c0.2-0.3,0.3-0.7,0.3-1.2
		c0-0.5-0.1-0.9-0.3-1.2c-0.2-0.3-0.4-0.5-0.7-0.7c-0.3-0.2-0.6-0.3-1-0.4c-0.4-0.1-0.7-0.2-1-0.3c-0.3-0.1-0.5-0.2-0.7-0.4
		c-0.2-0.2-0.3-0.4-0.3-0.7c0-0.2,0-0.4,0.1-0.5c0.1-0.1,0.2-0.3,0.3-0.3c0.1-0.1,0.3-0.2,0.4-0.2c0.2,0,0.3-0.1,0.5-0.1
		c0.3,0,0.6,0.1,0.8,0.2s0.5,0.3,0.6,0.5L191.8,179.9L191.8,179.9z M198.8,179.9c-0.3-0.3-0.7-0.5-1.1-0.7c-0.4-0.1-0.9-0.2-1.3-0.2
		c-0.4,0-0.8,0.1-1.2,0.2s-0.7,0.3-1,0.5c-0.3,0.2-0.5,0.5-0.7,0.8c-0.2,0.3-0.3,0.7-0.3,1.1c0,0.5,0.1,0.9,0.3,1.2
		c0.2,0.3,0.4,0.5,0.7,0.7c0.3,0.2,0.6,0.3,1,0.4s0.7,0.2,1,0.3c0.3,0.1,0.5,0.3,0.7,0.4s0.3,0.4,0.3,0.7c0,0.2,0,0.4-0.1,0.5
		c-0.1,0.1-0.2,0.3-0.3,0.4c-0.1,0.1-0.3,0.2-0.5,0.2c-0.2,0-0.4,0.1-0.5,0.1c-0.3,0-0.7-0.1-1-0.2c-0.3-0.2-0.5-0.4-0.7-0.7
		l-1.1,1.1c0.4,0.4,0.8,0.7,1.3,0.9c0.5,0.2,1,0.3,1.5,0.3c0.4,0,0.8-0.1,1.2-0.2c0.4-0.1,0.7-0.3,1-0.5c0.3-0.2,0.5-0.5,0.7-0.8
		c0.2-0.3,0.3-0.7,0.3-1.2c0-0.5-0.1-0.9-0.3-1.2c-0.2-0.3-0.4-0.5-0.7-0.7c-0.3-0.2-0.6-0.3-1-0.4c-0.4-0.1-0.7-0.2-1-0.3
		s-0.5-0.2-0.7-0.4c-0.2-0.2-0.3-0.4-0.3-0.7c0-0.2,0-0.4,0.1-0.5c0.1-0.1,0.2-0.3,0.3-0.3c0.1-0.1,0.3-0.2,0.4-0.2
		c0.2,0,0.3-0.1,0.5-0.1c0.3,0,0.6,0.1,0.8,0.2c0.3,0.1,0.5,0.3,0.6,0.5L198.8,179.9L198.8,179.9z M200.5,187.7h5.8v-1.4H202v-2.3
		h3.9v-1.4H202v-2.1h4.1v-1.4h-5.6V187.7L200.5,187.7z M208,187.7h1.5v-3.6h1.1l2,3.6h1.8l-2.3-3.8c0.6-0.1,1.1-0.3,1.5-0.8
		c0.3-0.4,0.5-0.9,0.5-1.5c0-0.5-0.1-0.9-0.3-1.2c-0.2-0.3-0.4-0.6-0.7-0.7c-0.3-0.2-0.6-0.3-1-0.4c-0.4-0.1-0.8-0.1-1.2-0.1h-3
		V187.7L208,187.7z M209.5,182.9v-2.3h1.3c0.2,0,0.4,0,0.6,0c0.2,0,0.4,0.1,0.6,0.1c0.2,0.1,0.3,0.2,0.4,0.3
		c0.1,0.2,0.2,0.4,0.2,0.6c0,0.3-0.1,0.5-0.2,0.7c-0.1,0.2-0.3,0.3-0.4,0.3c-0.2,0.1-0.4,0.1-0.6,0.1s-0.4,0-0.6,0H209.5
		L209.5,182.9z"/>
	<path d="M159.2,206.7h5.7v-1.3h-3.9l2.6-2.4c0.4-0.4,0.7-0.7,0.9-1.1c0.2-0.4,0.4-0.9,0.4-1.4c0-0.4-0.1-0.8-0.2-1.1
		c-0.1-0.3-0.3-0.6-0.6-0.8s-0.5-0.3-0.9-0.4c-0.3-0.1-0.7-0.1-1.1-0.1c-0.4,0-0.7,0.1-1.1,0.2c-0.3,0.1-0.6,0.3-0.9,0.5
		c-0.2,0.2-0.4,0.5-0.6,0.8c-0.2,0.3-0.2,0.6-0.3,1l1.5,0.1c0-0.4,0.2-0.6,0.4-0.8c0.2-0.2,0.5-0.3,0.9-0.3c0.2,0,0.3,0,0.5,0.1
		s0.3,0.1,0.4,0.2c0.1,0.1,0.2,0.2,0.3,0.3c0.1,0.1,0.1,0.3,0.1,0.5c0,0.1,0,0.3-0.1,0.4c-0.1,0.1-0.1,0.3-0.2,0.4s-0.2,0.2-0.3,0.3
		c-0.1,0.1-0.2,0.2-0.3,0.3l-3.3,3.2V206.7L159.2,206.7z"/>
	<path d="M175.1,206.7h1.5v-3.6h1.1l2,3.6h1.8l-2.3-3.8c0.6-0.1,1.1-0.3,1.5-0.8c0.3-0.4,0.5-0.9,0.5-1.5c0-0.5-0.1-0.9-0.3-1.2
		s-0.4-0.6-0.7-0.7c-0.3-0.2-0.6-0.3-1-0.4c-0.4-0.1-0.8-0.1-1.2-0.1h-3V206.7L175.1,206.7z M176.6,201.8v-2.3h1.3
		c0.2,0,0.4,0,0.6,0c0.2,0,0.4,0.1,0.6,0.2c0.2,0.1,0.3,0.2,0.4,0.3s0.2,0.4,0.2,0.6c0,0.3-0.1,0.5-0.2,0.7
		c-0.1,0.2-0.3,0.3-0.4,0.3c-0.2,0.1-0.4,0.1-0.6,0.1c-0.2,0-0.4,0-0.6,0H176.6L176.6,201.8z M182.6,204.3c0.2,0.5,0.5,1,0.9,1.4
		c0.4,0.4,0.9,0.7,1.4,0.9s1.1,0.3,1.8,0.3c0.7,0,1.3-0.1,1.8-0.3c0.6-0.2,1-0.5,1.4-0.9c0.4-0.4,0.7-0.9,0.9-1.4s0.3-1.1,0.3-1.8
		c0-0.7-0.1-1.3-0.3-1.8c-0.2-0.6-0.5-1-0.9-1.4c-0.4-0.4-0.9-0.7-1.4-0.9c-0.6-0.2-1.2-0.3-1.8-0.3c-0.7,0-1.3,0.1-1.8,0.3
		c-0.5,0.2-1,0.5-1.4,0.9c-0.4,0.4-0.7,0.9-0.9,1.4c-0.2,0.6-0.3,1.2-0.3,1.9C182.3,203.2,182.4,203.8,182.6,204.3L182.6,204.3z
		 M184.1,201.2c0.1-0.4,0.3-0.7,0.6-1c0.3-0.3,0.6-0.5,0.9-0.6c0.4-0.2,0.8-0.2,1.2-0.2c0.4,0,0.8,0.1,1.2,0.2
		c0.4,0.2,0.7,0.4,0.9,0.6c0.3,0.3,0.5,0.6,0.6,1c0.1,0.4,0.2,0.8,0.2,1.2c0,0.5-0.1,0.9-0.2,1.3c-0.1,0.4-0.3,0.7-0.6,1
		c-0.3,0.3-0.6,0.5-0.9,0.7c-0.4,0.2-0.8,0.2-1.2,0.2c-0.4,0-0.8-0.1-1.2-0.2c-0.4-0.2-0.7-0.4-0.9-0.7c-0.3-0.3-0.5-0.6-0.6-1
		s-0.2-0.8-0.2-1.3C183.9,202,184,201.6,184.1,201.2L184.1,201.2z M198.1,198.9c-0.3-0.3-0.7-0.5-1.1-0.7c-0.4-0.1-0.9-0.2-1.3-0.2
		c-0.4,0-0.8,0.1-1.2,0.2c-0.4,0.1-0.7,0.3-1,0.5c-0.3,0.2-0.5,0.5-0.7,0.8c-0.2,0.3-0.3,0.7-0.3,1.1c0,0.5,0.1,0.9,0.3,1.2
		c0.2,0.3,0.4,0.5,0.7,0.7c0.3,0.2,0.6,0.3,1,0.4s0.7,0.2,1,0.3c0.3,0.1,0.5,0.3,0.7,0.4s0.3,0.4,0.3,0.7c0,0.2,0,0.4-0.1,0.5
		c-0.1,0.1-0.2,0.3-0.3,0.4s-0.3,0.2-0.5,0.2s-0.4,0.1-0.5,0.1c-0.3,0-0.7-0.1-1-0.2c-0.3-0.2-0.5-0.4-0.7-0.7l-1.1,1.1
		c0.4,0.4,0.8,0.7,1.3,0.9c0.5,0.2,1,0.3,1.5,0.3c0.4,0,0.8-0.1,1.2-0.2s0.7-0.3,1-0.5c0.3-0.2,0.5-0.5,0.7-0.8
		c0.2-0.3,0.3-0.7,0.3-1.2c0-0.5-0.1-0.9-0.3-1.2c-0.2-0.3-0.4-0.5-0.7-0.7c-0.3-0.2-0.6-0.3-1-0.4c-0.4-0.1-0.7-0.2-1-0.3
		s-0.5-0.2-0.7-0.4s-0.3-0.4-0.3-0.7c0-0.2,0-0.4,0.1-0.5c0.1-0.1,0.2-0.3,0.3-0.3c0.1-0.1,0.3-0.2,0.4-0.2c0.2,0,0.3-0.1,0.5-0.1
		c0.3,0,0.6,0.1,0.8,0.2c0.3,0.1,0.5,0.3,0.6,0.5L198.1,198.9L198.1,198.9z M206.9,199.4c-0.4-0.5-0.9-0.8-1.4-1
		c-0.5-0.2-1-0.3-1.6-0.3c-0.7,0-1.3,0.1-1.8,0.3c-0.5,0.2-1,0.5-1.4,0.9c-0.4,0.4-0.7,0.9-0.9,1.4c-0.2,0.6-0.3,1.2-0.3,1.9
		c0,0.7,0.1,1.3,0.3,1.8s0.5,1,0.9,1.4s0.9,0.7,1.4,0.9c0.5,0.2,1.1,0.3,1.8,0.3c0.6,0,1.2-0.1,1.8-0.4c0.6-0.2,1-0.6,1.4-1.2
		l-1.2-0.9c-0.3,0.4-0.6,0.6-0.9,0.8s-0.7,0.2-1,0.2c-0.4,0-0.8-0.1-1.2-0.2c-0.4-0.2-0.7-0.4-0.9-0.7c-0.3-0.3-0.5-0.6-0.6-1
		s-0.2-0.8-0.2-1.3c0-0.4,0.1-0.8,0.2-1.2c0.1-0.4,0.3-0.7,0.6-1c0.3-0.3,0.6-0.5,0.9-0.6c0.4-0.2,0.8-0.2,1.2-0.2
		c0.3,0,0.6,0.1,0.9,0.2c0.3,0.1,0.6,0.3,0.9,0.7L206.9,199.4L206.9,199.4z M208.2,206.7h1.5V203h4v3.7h1.5v-8.5h-1.5v3.4h-4v-3.4
		h-1.5V206.7L208.2,206.7z M217.2,206.7h1.5v-6.5h0l4.2,6.5h1.9v-8.5h-1.5v6.3h0l-4.1-6.3h-2V206.7L217.2,206.7z M226.9,206.7h1.5
		v-8.5h-1.5V206.7L226.9,206.7z M230.4,206.7h1.5v-4.2h0.1l3.7,4.2h2.1l-4.2-4.6l4-3.9h-2l-3.5,3.6h-0.1v-3.6h-1.5V206.7
		L230.4,206.7z"/>
	<path d="M161.2,222h0.3c0.2,0,0.4,0,0.7,0s0.4,0.1,0.6,0.2c0.2,0.1,0.3,0.2,0.4,0.4c0.1,0.2,0.2,0.4,0.2,0.7c0,0.2,0,0.4-0.1,0.5
		c-0.1,0.2-0.2,0.3-0.3,0.4c-0.1,0.1-0.3,0.2-0.5,0.3c-0.2,0.1-0.4,0.1-0.5,0.1c-0.4,0-0.7-0.1-0.9-0.3c-0.2-0.2-0.4-0.5-0.5-0.8
		l-1.5,0.4c0.1,0.4,0.2,0.7,0.4,0.9c0.2,0.3,0.4,0.5,0.7,0.6c0.3,0.2,0.5,0.3,0.8,0.4c0.3,0.1,0.6,0.1,1,0.1c0.4,0,0.7-0.1,1.1-0.2
		c0.3-0.1,0.7-0.3,0.9-0.5c0.3-0.2,0.5-0.5,0.6-0.8c0.2-0.3,0.2-0.7,0.2-1.1c0-0.5-0.1-1-0.4-1.4c-0.3-0.4-0.7-0.6-1.2-0.7v0
		c0.5-0.1,0.8-0.3,1.1-0.7s0.4-0.8,0.4-1.2c0-0.4-0.1-0.7-0.2-1c-0.1-0.3-0.3-0.5-0.6-0.7c-0.2-0.2-0.5-0.3-0.9-0.4s-0.7-0.1-1-0.1
		c-0.3,0-0.6,0-0.9,0.1c-0.3,0.1-0.6,0.2-0.8,0.3c-0.2,0.1-0.4,0.3-0.6,0.6c-0.2,0.2-0.3,0.5-0.4,0.8l1.5,0.4
		c0.1-0.3,0.3-0.5,0.5-0.7c0.2-0.2,0.5-0.2,0.8-0.2c0.4,0,0.7,0.1,0.9,0.3c0.2,0.2,0.3,0.5,0.3,0.8c0,0.3,0,0.5-0.1,0.6
		c-0.1,0.2-0.2,0.3-0.4,0.3c-0.2,0.1-0.3,0.1-0.5,0.2c-0.2,0-0.4,0-0.6,0h-0.4V222L161.2,222z"/>
	<path d="M175.1,225.7h1.5v-3.6h1.1l2,3.6h1.8l-2.3-3.8c0.6-0.1,1.1-0.3,1.5-0.8s0.5-0.9,0.5-1.5c0-0.5-0.1-0.9-0.3-1.2
		c-0.2-0.3-0.4-0.6-0.7-0.7c-0.3-0.2-0.6-0.3-1-0.4c-0.4-0.1-0.8-0.1-1.2-0.1h-3V225.7L175.1,225.7z M176.6,220.8v-2.3h1.3
		c0.2,0,0.4,0,0.6,0c0.2,0,0.4,0.1,0.6,0.1c0.2,0.1,0.3,0.2,0.4,0.3s0.2,0.4,0.2,0.6c0,0.3-0.1,0.5-0.2,0.7
		c-0.1,0.2-0.3,0.3-0.4,0.3c-0.2,0.1-0.4,0.1-0.6,0.1c-0.2,0-0.4,0-0.6,0H176.6L176.6,220.8z M182.6,223.3c0.2,0.5,0.5,1,0.9,1.4
		c0.4,0.4,0.9,0.7,1.4,0.9s1.1,0.3,1.8,0.3c0.7,0,1.3-0.1,1.8-0.3c0.6-0.2,1-0.5,1.4-0.9c0.4-0.4,0.7-0.9,0.9-1.4s0.3-1.1,0.3-1.8
		c0-0.7-0.1-1.3-0.3-1.8s-0.5-1-0.9-1.4c-0.4-0.4-0.9-0.7-1.4-0.9c-0.6-0.2-1.2-0.3-1.8-0.3c-0.7,0-1.3,0.1-1.8,0.3
		c-0.5,0.2-1,0.5-1.4,0.9c-0.4,0.4-0.7,0.9-0.9,1.4c-0.2,0.6-0.3,1.2-0.3,1.9C182.3,222.2,182.4,222.8,182.6,223.3L182.6,223.3z
		 M184.1,220.2c0.1-0.4,0.3-0.7,0.6-1c0.3-0.3,0.6-0.5,0.9-0.6c0.4-0.2,0.8-0.2,1.2-0.2c0.4,0,0.8,0.1,1.2,0.2
		c0.4,0.2,0.7,0.4,0.9,0.6c0.3,0.3,0.5,0.6,0.6,1c0.1,0.4,0.2,0.8,0.2,1.2c0,0.5-0.1,0.9-0.2,1.3c-0.1,0.4-0.3,0.7-0.6,1
		c-0.3,0.3-0.6,0.5-0.9,0.7s-0.8,0.2-1.2,0.2c-0.4,0-0.8-0.1-1.2-0.2c-0.4-0.2-0.7-0.4-0.9-0.7c-0.3-0.3-0.5-0.6-0.6-1
		c-0.1-0.4-0.2-0.8-0.2-1.3C183.9,221,184,220.6,184.1,220.2L184.1,220.2z M192.9,225.7h1.5V222h4v3.7h1.5v-8.5h-1.5v3.4h-4v-3.4
		h-1.5V225.7L192.9,225.7z M201.9,225.7h1.4v-7.1h0l2.6,7.1h1.1l2.6-7.1h0v7.1h1.4v-8.5h-2.3l-2.3,6l-2.3-6h-2.3V225.7L201.9,225.7z
		"/>
	<path d="M162.5,244.7h1.4V243h1.2v-1.3h-1.2v-5.5h-1.6l-3.4,5.3v1.4h3.6V244.7L162.5,244.7z M162.5,241.7h-2.1l2.1-3.4h0V241.7
		L162.5,241.7z"/>
	<path d="M175.1,244.7h5.1v-1.4h-3.6v-7.1h-1.5V244.7L175.1,244.7z M181.4,244.7h1.5v-8.5h-1.5V244.7L181.4,244.7z M186.6,244.7h1.5
		v-7.1h2.6v-1.4H184v1.4h2.6V244.7L186.6,244.7z M193.6,244.7h1.5v-7.1h2.6v-1.4H191v1.4h2.6V244.7L193.6,244.7z M198.8,242.3
		c0.2,0.5,0.5,1,0.9,1.4c0.4,0.4,0.9,0.7,1.4,0.9c0.5,0.2,1.1,0.3,1.8,0.3c0.7,0,1.3-0.1,1.8-0.3c0.6-0.2,1-0.5,1.4-0.9
		c0.4-0.4,0.7-0.9,0.9-1.4c0.2-0.5,0.3-1.1,0.3-1.8c0-0.7-0.1-1.3-0.3-1.8c-0.2-0.6-0.5-1-0.9-1.4c-0.4-0.4-0.9-0.7-1.4-0.9
		c-0.6-0.2-1.2-0.3-1.8-0.3c-0.7,0-1.3,0.1-1.8,0.3c-0.5,0.2-1,0.5-1.4,0.9c-0.4,0.4-0.7,0.9-0.9,1.4c-0.2,0.6-0.3,1.2-0.3,1.9
		C198.4,241.2,198.6,241.8,198.8,242.3L198.8,242.3z M200.2,239.2c0.1-0.4,0.3-0.7,0.6-1s0.6-0.5,0.9-0.6c0.4-0.2,0.8-0.2,1.2-0.2
		s0.8,0.1,1.2,0.2s0.7,0.4,0.9,0.6c0.3,0.3,0.5,0.6,0.6,1c0.1,0.4,0.2,0.8,0.2,1.2c0,0.5-0.1,0.9-0.2,1.3s-0.3,0.7-0.6,1
		c-0.3,0.3-0.6,0.5-0.9,0.7s-0.8,0.2-1.2,0.2s-0.8-0.1-1.2-0.2c-0.4-0.2-0.7-0.4-0.9-0.7s-0.5-0.6-0.6-1c-0.1-0.4-0.2-0.8-0.2-1.3
		C200,240,200.1,239.6,200.2,239.2L200.2,239.2z"/>
	<path d="M164.6,255.2h-4.8l-0.1,4.6c0.3-0.1,0.5-0.2,0.8-0.3c0.3-0.1,0.6-0.1,0.9-0.1c0.3,0,0.5,0,0.8,0.1s0.5,0.2,0.6,0.3
		c0.2,0.1,0.3,0.3,0.4,0.5c0.1,0.2,0.2,0.5,0.2,0.8c0,0.2,0,0.4-0.1,0.6c-0.1,0.2-0.2,0.3-0.3,0.5c-0.1,0.1-0.3,0.2-0.5,0.3
		c-0.2,0.1-0.4,0.1-0.6,0.1c-0.4,0-0.7-0.1-0.9-0.3c-0.2-0.2-0.4-0.4-0.5-0.7l-1.5,0.4c0.2,0.7,0.5,1.1,1,1.5
		c0.5,0.3,1.1,0.5,1.7,0.5c0.4,0,0.8-0.1,1.2-0.2c0.4-0.1,0.7-0.3,1-0.6c0.3-0.3,0.5-0.6,0.6-0.9c0.2-0.4,0.2-0.8,0.2-1.2
		c0-0.4-0.1-0.8-0.2-1.2c-0.1-0.3-0.3-0.6-0.6-0.9c-0.2-0.2-0.5-0.4-0.9-0.6c-0.3-0.1-0.7-0.2-1.1-0.2c-0.2,0-0.3,0-0.5,0
		c-0.2,0-0.3,0-0.4,0.1l0-1.7h3.4V255.2L164.6,255.2z"/>
	<path d="M175.1,263.7h1.5v-4.2h0.1l3.7,4.2h2.1l-4.2-4.6l4-3.9h-2l-3.5,3.6h-0.1v-3.6h-1.5V263.7L175.1,263.7z M183.4,263.7h1.5
		v-8.5h-1.5V263.7L183.4,263.7z M192.1,255.9c-0.3-0.3-0.7-0.5-1.1-0.7c-0.4-0.1-0.9-0.2-1.3-0.2c-0.4,0-0.8,0.1-1.2,0.2
		c-0.4,0.1-0.7,0.3-1,0.5c-0.3,0.2-0.5,0.5-0.7,0.8c-0.2,0.3-0.3,0.7-0.3,1.1c0,0.5,0.1,0.9,0.3,1.2c0.2,0.3,0.4,0.5,0.7,0.7
		c0.3,0.2,0.6,0.3,1,0.4c0.4,0.1,0.7,0.2,1,0.3c0.3,0.1,0.5,0.3,0.7,0.4s0.3,0.4,0.3,0.7c0,0.2,0,0.4-0.1,0.5
		c-0.1,0.1-0.2,0.3-0.3,0.4s-0.3,0.2-0.5,0.2s-0.4,0.1-0.5,0.1c-0.3,0-0.7-0.1-1-0.2c-0.3-0.2-0.5-0.4-0.7-0.7l-1.1,1.1
		c0.4,0.4,0.8,0.7,1.3,0.9c0.5,0.2,1,0.3,1.5,0.3c0.4,0,0.8-0.1,1.2-0.2c0.4-0.1,0.7-0.3,1-0.5c0.3-0.2,0.5-0.5,0.7-0.8
		c0.2-0.3,0.3-0.7,0.3-1.2c0-0.5-0.1-0.9-0.3-1.2c-0.2-0.3-0.4-0.5-0.7-0.7c-0.3-0.2-0.6-0.3-1-0.4c-0.4-0.1-0.7-0.2-1-0.3
		c-0.3-0.1-0.5-0.2-0.7-0.4c-0.2-0.2-0.3-0.4-0.3-0.7c0-0.2,0-0.4,0.1-0.5c0.1-0.1,0.2-0.3,0.3-0.3c0.1-0.1,0.3-0.2,0.4-0.2
		c0.2,0,0.3-0.1,0.5-0.1c0.3,0,0.6,0.1,0.8,0.2c0.3,0.1,0.5,0.3,0.6,0.5L192.1,255.9L192.1,255.9z M199.2,255.9
		c-0.3-0.3-0.7-0.5-1.1-0.7c-0.4-0.1-0.9-0.2-1.3-0.2c-0.4,0-0.8,0.1-1.2,0.2c-0.4,0.1-0.7,0.3-1,0.5c-0.3,0.2-0.5,0.5-0.7,0.8
		c-0.2,0.3-0.3,0.7-0.3,1.1c0,0.5,0.1,0.9,0.3,1.2c0.2,0.3,0.4,0.5,0.7,0.7c0.3,0.2,0.6,0.3,1,0.4c0.4,0.1,0.7,0.2,1,0.3
		c0.3,0.1,0.5,0.3,0.7,0.4c0.2,0.2,0.3,0.4,0.3,0.7c0,0.2,0,0.4-0.1,0.5c-0.1,0.1-0.2,0.3-0.3,0.4c-0.1,0.1-0.3,0.2-0.5,0.2
		c-0.2,0-0.4,0.1-0.5,0.1c-0.3,0-0.7-0.1-1-0.2c-0.3-0.2-0.5-0.4-0.7-0.7l-1.1,1.1c0.4,0.4,0.8,0.7,1.3,0.9c0.5,0.2,1,0.3,1.5,0.3
		c0.4,0,0.8-0.1,1.2-0.2c0.4-0.1,0.7-0.3,1-0.5c0.3-0.2,0.5-0.5,0.7-0.8c0.2-0.3,0.3-0.7,0.3-1.2c0-0.5-0.1-0.9-0.3-1.2
		c-0.2-0.3-0.4-0.5-0.7-0.7c-0.3-0.2-0.6-0.3-1-0.4c-0.4-0.1-0.7-0.2-1-0.3c-0.3-0.1-0.5-0.2-0.7-0.4c-0.2-0.2-0.3-0.4-0.3-0.7
		c0-0.2,0-0.4,0.1-0.5c0.1-0.1,0.2-0.3,0.3-0.3c0.1-0.1,0.3-0.2,0.4-0.2c0.2,0,0.3-0.1,0.5-0.1c0.3,0,0.6,0.1,0.8,0.2
		s0.5,0.3,0.6,0.5L199.2,255.9L199.2,255.9z"/>
	<path d="M162,274.2l-2.2,3.4c-0.2,0.4-0.4,0.7-0.6,1.1c-0.1,0.4-0.2,0.8-0.2,1.2c0,0.4,0.1,0.9,0.2,1.2c0.1,0.4,0.4,0.7,0.6,0.9
		c0.3,0.2,0.6,0.4,1,0.6c0.4,0.1,0.8,0.2,1.2,0.2c0.4,0,0.8-0.1,1.2-0.2c0.4-0.1,0.7-0.3,1-0.6c0.3-0.3,0.5-0.6,0.6-0.9
		c0.2-0.4,0.2-0.8,0.2-1.2c0-0.4-0.1-0.7-0.2-1c-0.1-0.3-0.3-0.6-0.5-0.9c-0.2-0.2-0.5-0.4-0.8-0.6c-0.3-0.1-0.7-0.2-1-0.2
		c-0.1,0-0.3,0-0.4,0c-0.1,0-0.3,0.1-0.4,0.1l0,0l2-3.1H162L162,274.2z M160.6,279.3c0.1-0.2,0.2-0.4,0.3-0.5
		c0.1-0.1,0.3-0.3,0.5-0.3c0.2-0.1,0.4-0.1,0.6-0.1c0.2,0,0.4,0,0.6,0.1c0.2,0.1,0.4,0.2,0.5,0.3c0.1,0.1,0.3,0.3,0.3,0.5
		c0.1,0.2,0.1,0.4,0.1,0.6s0,0.4-0.1,0.6c-0.1,0.2-0.2,0.4-0.3,0.5c-0.1,0.1-0.3,0.2-0.5,0.3c-0.2,0.1-0.4,0.1-0.6,0.1
		c-0.2,0-0.4,0-0.6-0.1c-0.2-0.1-0.4-0.2-0.5-0.3c-0.1-0.1-0.2-0.3-0.3-0.5s-0.1-0.4-0.1-0.6S160.6,279.5,160.6,279.3L160.6,279.3z"
		/>
	<path d="M175.1,282.7h1.5v-4.2h0.1l3.7,4.2h2.1l-4.2-4.6l4-3.9h-2l-3.5,3.6h-0.1v-3.6h-1.5V282.7L175.1,282.7z M182.5,282.7h1.7
		l0.8-1.9h3.7l0.8,1.9h1.7l-3.7-8.5h-1.3L182.5,282.7L182.5,282.7z M185.5,279.5l1.3-3.5l1.3,3.5H185.5L185.5,279.5z M192.8,282.7
		h1.5v-7.1h2.6v-1.4h-6.7v1.4h2.6V282.7L192.8,282.7z M196.1,282.7h1.7l0.8-1.9h3.7l0.8,1.9h1.7l-3.7-8.5h-1.3L196.1,282.7
		L196.1,282.7z M199,279.5l1.3-3.5l1.3,3.5H199L199,279.5z M205.8,282.7h5.1v-1.4h-3.6v-7.1h-1.5V282.7L205.8,282.7z M212.1,282.7
		h1.5v-8.5h-1.5V282.7L212.1,282.7z M215.6,282.7h1.5v-6.5h0l4.2,6.5h1.9v-8.5h-1.5v6.3h0l-4.1-6.3h-2V282.7L215.6,282.7z
		 M224.3,282.7h1.7l0.8-1.9h3.7l0.8,1.9h1.7l-3.7-8.5H228L224.3,282.7L224.3,282.7z M227.3,279.5l1.3-3.5l1.3,3.5H227.3L227.3,279.5
		z"/>
	<polygon points="159.1,294.6 163.3,294.6 159.8,301.7 161.5,301.7 164.9,294.5 164.9,293.2 159.1,293.2 159.1,294.6 	"/>
	<path d="M175.1,301.7h1.5V298h4v3.7h1.5v-8.5h-1.5v3.4h-4v-3.4h-1.5V301.7L175.1,301.7z M184.1,301.7h5.8v-1.4h-4.3V298h3.9v-1.4
		h-3.9v-2.1h4.1v-1.4h-5.6V301.7L184.1,301.7z M191.5,301.7h1.5v-3.6h1.1l2,3.6h1.8l-2.3-3.8c0.6-0.1,1.1-0.3,1.5-0.8
		c0.3-0.4,0.5-0.9,0.5-1.5c0-0.5-0.1-0.9-0.3-1.2c-0.2-0.3-0.4-0.6-0.7-0.7c-0.3-0.2-0.6-0.3-1-0.4s-0.8-0.1-1.2-0.1h-3V301.7
		L191.5,301.7z M193.1,296.8v-2.3h1.3c0.2,0,0.4,0,0.6,0c0.2,0,0.4,0.1,0.6,0.2c0.2,0.1,0.3,0.2,0.4,0.3c0.1,0.2,0.2,0.4,0.2,0.6
		c0,0.3-0.1,0.5-0.2,0.7c-0.1,0.2-0.3,0.3-0.4,0.3c-0.2,0.1-0.4,0.1-0.6,0.1c-0.2,0-0.4,0-0.6,0H193.1L193.1,296.8z M198.7,301.7
		h6.5v-1.4h-4.6l4.6-5.8v-1.4h-6.3v1.4h4.5l-4.5,5.8V301.7L198.7,301.7z M206.7,301.7h5.1v-1.4h-3.6v-7.1h-1.5V301.7L206.7,301.7z"
		/>
	<path d="M161,312.2c-0.3,0.1-0.6,0.2-0.8,0.4c-0.2,0.2-0.4,0.4-0.6,0.7s-0.2,0.6-0.2,1c0,0.5,0.1,0.9,0.3,1.2
		c0.2,0.3,0.5,0.6,1,0.7v0c-0.2,0-0.4,0.1-0.6,0.2c-0.2,0.1-0.4,0.3-0.5,0.5c-0.1,0.2-0.3,0.4-0.3,0.6c-0.1,0.2-0.1,0.5-0.1,0.7
		c0,0.4,0.1,0.8,0.2,1.1c0.2,0.3,0.4,0.6,0.6,0.8c0.3,0.2,0.6,0.4,0.9,0.5c0.3,0.1,0.7,0.2,1.1,0.2c0.4,0,0.8-0.1,1.1-0.2
		s0.7-0.3,0.9-0.5c0.3-0.2,0.5-0.5,0.6-0.8c0.2-0.3,0.2-0.7,0.2-1.1c0-0.3,0-0.5-0.1-0.7c-0.1-0.2-0.2-0.4-0.3-0.6
		c-0.1-0.2-0.3-0.3-0.5-0.5c-0.2-0.1-0.4-0.2-0.6-0.2v0c0.4-0.1,0.8-0.4,1-0.7c0.2-0.3,0.3-0.7,0.3-1.2c0-0.4-0.1-0.7-0.2-1
		c-0.1-0.3-0.3-0.5-0.6-0.7c-0.2-0.2-0.5-0.3-0.8-0.4c-0.3-0.1-0.7-0.1-1-0.1S161.3,312.1,161,312.2L161,312.2z M162.9,313.6
		c0.2,0.2,0.3,0.5,0.3,0.8c0,0.2,0,0.3-0.1,0.5c-0.1,0.1-0.1,0.3-0.3,0.4c-0.1,0.1-0.2,0.2-0.4,0.3c-0.1,0.1-0.3,0.1-0.5,0.1
		c-0.4,0-0.6-0.1-0.9-0.3c-0.2-0.2-0.3-0.5-0.3-0.8c0-0.3,0.1-0.6,0.3-0.8c0.2-0.2,0.5-0.3,0.9-0.3
		C162.4,313.3,162.6,313.4,162.9,313.6L162.9,313.6z M162.6,316.9c0.2,0.1,0.3,0.2,0.5,0.3c0.1,0.1,0.2,0.3,0.3,0.4
		c0.1,0.2,0.1,0.3,0.1,0.5c0,0.4-0.1,0.7-0.4,1c-0.3,0.3-0.6,0.4-1,0.4s-0.8-0.1-1-0.4c-0.3-0.3-0.4-0.6-0.4-1c0-0.2,0-0.4,0.1-0.5
		c0.1-0.2,0.2-0.3,0.3-0.4s0.3-0.2,0.5-0.3c0.2-0.1,0.4-0.1,0.6-0.1C162.2,316.8,162.4,316.8,162.6,316.9L162.6,316.9z"/>
	<path d="M183.1,315.7h-3.3v1.4h1.7v2c-0.3,0.2-0.6,0.3-0.9,0.3c-0.3,0.1-0.7,0.1-1.1,0.1c-0.4,0-0.8-0.1-1.2-0.2
		c-0.4-0.2-0.7-0.4-0.9-0.7s-0.5-0.6-0.6-1c-0.1-0.4-0.2-0.8-0.2-1.3c0-0.4,0.1-0.8,0.2-1.2c0.1-0.4,0.3-0.7,0.6-1s0.6-0.5,0.9-0.6
		c0.4-0.2,0.8-0.2,1.2-0.2c0.4,0,0.8,0.1,1.2,0.2c0.4,0.1,0.7,0.3,1,0.6l1.1-1.1c-0.4-0.4-1-0.7-1.5-0.8c-0.6-0.2-1.2-0.2-1.8-0.2
		c-0.7,0-1.3,0.1-1.8,0.3c-0.5,0.2-1,0.5-1.4,0.9s-0.7,0.9-0.9,1.4c-0.2,0.6-0.3,1.2-0.3,1.9c0,0.7,0.1,1.3,0.3,1.8
		c0.2,0.5,0.5,1,0.9,1.4s0.9,0.7,1.4,0.9c0.5,0.2,1.1,0.3,1.8,0.3c1.3,0,2.5-0.3,3.5-0.8V315.7L183.1,315.7z M185,320.7h1.5v-3.6
		h1.1l2,3.6h1.8l-2.3-3.8c0.6-0.1,1.1-0.3,1.5-0.8c0.3-0.4,0.5-0.9,0.5-1.5c0-0.5-0.1-0.9-0.3-1.2c-0.2-0.3-0.4-0.6-0.7-0.7
		c-0.3-0.2-0.6-0.3-1-0.4c-0.4-0.1-0.8-0.1-1.2-0.1h-3V320.7L185,320.7z M186.5,315.8v-2.3h1.3c0.2,0,0.4,0,0.6,0s0.4,0.1,0.6,0.1
		c0.2,0.1,0.3,0.2,0.4,0.3s0.2,0.4,0.2,0.6c0,0.3-0.1,0.5-0.2,0.7c-0.1,0.2-0.3,0.3-0.4,0.3c-0.2,0.1-0.4,0.1-0.6,0.1
		c-0.2,0-0.4,0-0.6,0H186.5L186.5,315.8z M199.5,312.2H198v5.3c0,0.2,0,0.4-0.1,0.7c-0.1,0.2-0.2,0.4-0.3,0.6
		c-0.1,0.2-0.3,0.4-0.6,0.5c-0.2,0.1-0.5,0.2-0.9,0.2s-0.7-0.1-0.9-0.2c-0.2-0.1-0.4-0.3-0.6-0.5c-0.1-0.2-0.3-0.4-0.3-0.6
		c-0.1-0.2-0.1-0.4-0.1-0.7v-5.3h-1.5v5.4c0,0.5,0.1,1,0.3,1.4c0.2,0.4,0.4,0.8,0.7,1c0.3,0.3,0.7,0.5,1.1,0.7
		c0.4,0.2,0.9,0.2,1.4,0.2c0.5,0,0.9-0.1,1.4-0.2c0.4-0.2,0.8-0.4,1.1-0.7c0.3-0.3,0.5-0.6,0.7-1c0.2-0.4,0.3-0.9,0.3-1.4V312.2
		L199.5,312.2z M194.2,311.4c0.2,0.2,0.4,0.3,0.7,0.3c0.3,0,0.5-0.1,0.7-0.2c0.2-0.2,0.3-0.4,0.3-0.6c0-0.2-0.1-0.5-0.3-0.6
		c-0.2-0.2-0.4-0.2-0.7-0.2c-0.3,0-0.5,0.1-0.7,0.3c-0.2,0.2-0.3,0.4-0.3,0.6C193.9,311,194,311.2,194.2,311.4L194.2,311.4z
		 M196.6,311.4c0.2,0.2,0.4,0.3,0.7,0.3c0.3,0,0.5-0.1,0.7-0.2c0.2-0.2,0.3-0.4,0.3-0.6c0-0.2-0.1-0.5-0.3-0.6
		c-0.2-0.2-0.4-0.2-0.7-0.2c-0.3,0-0.5,0.1-0.7,0.3s-0.3,0.4-0.3,0.6C196.4,311,196.5,311.2,196.6,311.4L196.6,311.4z M201.5,320.7
		h1.5v-6.5h0l4.2,6.5h1.9v-8.5h-1.5v6.3h0l-4.1-6.3h-2V320.7L201.5,320.7z"/>
	<path d="M162.1,339.7l2.2-3.4c0.2-0.4,0.4-0.7,0.6-1.1s0.2-0.8,0.2-1.2s-0.1-0.9-0.2-1.2s-0.4-0.7-0.6-0.9s-0.6-0.4-1-0.6
		c-0.4-0.1-0.8-0.2-1.2-0.2c-0.4,0-0.8,0.1-1.2,0.2c-0.4,0.1-0.7,0.3-1,0.6c-0.3,0.3-0.5,0.6-0.6,0.9s-0.2,0.8-0.2,1.2
		c0,0.4,0.1,0.7,0.2,1c0.1,0.3,0.3,0.6,0.5,0.9c0.2,0.2,0.5,0.4,0.8,0.6c0.3,0.1,0.7,0.2,1,0.2c0.1,0,0.3,0,0.4,0
		c0.1,0,0.3-0.1,0.4-0.1l0,0l-2,3.1H162.1L162.1,339.7z M163.4,334.6c-0.1,0.2-0.2,0.4-0.3,0.5c-0.1,0.1-0.3,0.2-0.5,0.3
		s-0.4,0.1-0.6,0.1s-0.4,0-0.6-0.1c-0.2-0.1-0.4-0.2-0.5-0.3c-0.1-0.1-0.2-0.3-0.3-0.5c-0.1-0.2-0.1-0.4-0.1-0.6
		c0-0.2,0-0.4,0.1-0.6c0.1-0.2,0.2-0.4,0.3-0.5c0.1-0.1,0.3-0.2,0.5-0.3c0.2-0.1,0.4-0.1,0.6-0.1s0.4,0,0.6,0.1
		c0.2,0.1,0.4,0.2,0.5,0.3c0.1,0.1,0.2,0.3,0.3,0.5c0.1,0.2,0.1,0.4,0.1,0.6C163.5,334.2,163.5,334.4,163.4,334.6L163.4,334.6z"/>
	<path d="M183.1,334.7h-3.3v1.4h1.7v2c-0.3,0.2-0.6,0.3-0.9,0.3c-0.3,0.1-0.7,0.1-1.1,0.1c-0.4,0-0.8-0.1-1.2-0.2
		c-0.4-0.2-0.7-0.4-0.9-0.7s-0.5-0.6-0.6-1c-0.1-0.4-0.2-0.8-0.2-1.3c0-0.4,0.1-0.8,0.2-1.2c0.1-0.4,0.3-0.7,0.6-1s0.6-0.5,0.9-0.6
		c0.4-0.2,0.8-0.2,1.2-0.2c0.4,0,0.8,0.1,1.2,0.2c0.4,0.1,0.7,0.3,1,0.6l1.1-1.1c-0.4-0.4-1-0.7-1.5-0.8c-0.6-0.2-1.2-0.2-1.8-0.2
		c-0.7,0-1.3,0.1-1.8,0.3c-0.5,0.2-1,0.5-1.4,0.9c-0.4,0.4-0.7,0.9-0.9,1.4c-0.2,0.6-0.3,1.2-0.3,1.9c0,0.7,0.1,1.3,0.3,1.8
		c0.2,0.5,0.5,1,0.9,1.4s0.9,0.7,1.4,0.9c0.5,0.2,1.1,0.3,1.8,0.3c1.3,0,2.5-0.3,3.5-0.8V334.7L183.1,334.7z M185,339.7h1.5v-3.6
		h1.1l2,3.6h1.8l-2.3-3.8c0.6-0.1,1.1-0.3,1.5-0.8c0.3-0.4,0.5-0.9,0.5-1.5c0-0.5-0.1-0.9-0.3-1.2c-0.2-0.3-0.4-0.6-0.7-0.7
		s-0.6-0.3-1-0.4c-0.4-0.1-0.8-0.1-1.2-0.1h-3V339.7L185,339.7z M186.5,334.8v-2.3h1.3c0.2,0,0.4,0,0.6,0c0.2,0,0.4,0.1,0.6,0.1
		c0.2,0.1,0.3,0.2,0.4,0.3c0.1,0.2,0.2,0.4,0.2,0.6c0,0.3-0.1,0.5-0.2,0.7c-0.1,0.2-0.3,0.3-0.4,0.3c-0.2,0.1-0.4,0.1-0.6,0.1
		c-0.2,0-0.4,0-0.6,0H186.5L186.5,334.8z M191.7,339.7h1.7l0.8-1.9h3.7l0.8,1.9h1.7l-3.7-8.5h-1.3L191.7,339.7L191.7,339.7z
		 M194.7,336.4l1.3-3.5l1.3,3.5H194.7L194.7,336.4z M201.5,339.7h3.1c0.4,0,0.8,0,1.2-0.1c0.4-0.1,0.7-0.2,1-0.4
		c0.3-0.2,0.5-0.4,0.7-0.7c0.2-0.3,0.3-0.7,0.3-1.2c0-0.3,0-0.5-0.1-0.8c-0.1-0.2-0.2-0.4-0.4-0.6c-0.2-0.2-0.4-0.3-0.6-0.4
		c-0.2-0.1-0.5-0.2-0.7-0.2v0c0.4-0.1,0.8-0.4,1.1-0.7c0.3-0.3,0.4-0.7,0.4-1.2c0-0.4-0.1-0.7-0.2-1c-0.2-0.3-0.3-0.5-0.6-0.7
		c-0.2-0.2-0.5-0.3-0.8-0.4c-0.3-0.1-0.6-0.1-0.9-0.1h-3.3V339.7L201.5,339.7z M203,332.5h1.2c0.6,0,1,0.1,1.3,0.3
		c0.3,0.2,0.4,0.5,0.4,0.8c0,0.3-0.1,0.6-0.4,0.8c-0.3,0.2-0.6,0.3-1.1,0.3H203V332.5L203,332.5z M203,335.9h1.5
		c0.6,0,1.1,0.1,1.4,0.3c0.3,0.2,0.4,0.5,0.4,0.9c0,0.3-0.1,0.5-0.2,0.7c-0.1,0.2-0.3,0.3-0.5,0.4c-0.2,0.1-0.4,0.1-0.6,0.2
		c-0.2,0-0.4,0-0.6,0H203V335.9L203,335.9z M209.4,339.7h1.5v-6.5h0l4.2,6.5h1.9v-8.5h-1.5v6.3h0l-4.1-6.3h-2V339.7L209.4,339.7z
		 M219,339.7h5.8v-1.4h-4.3V336h3.9v-1.4h-3.9v-2.1h4.1v-1.4H219V339.7L219,339.7z M226.5,339.7h1.5v-3.6h1.1l2,3.6h1.8l-2.3-3.8
		c0.6-0.1,1.1-0.3,1.5-0.8c0.3-0.4,0.5-0.9,0.5-1.5c0-0.5-0.1-0.9-0.3-1.2c-0.2-0.3-0.4-0.6-0.7-0.7c-0.3-0.2-0.6-0.3-1-0.4
		c-0.4-0.1-0.8-0.1-1.2-0.1h-3V339.7L226.5,339.7z M228,334.8v-2.3h1.3c0.2,0,0.4,0,0.6,0c0.2,0,0.4,0.1,0.6,0.1
		c0.2,0.1,0.3,0.2,0.4,0.3c0.1,0.2,0.2,0.4,0.2,0.6c0,0.3-0.1,0.5-0.2,0.7c-0.1,0.2-0.3,0.3-0.4,0.3c-0.2,0.1-0.4,0.1-0.6,0.1
		c-0.2,0-0.4,0-0.6,0H228L228,334.8z"/>
	<path d="M158.3,358.7h1.4v-8.5h-1.3l-2.6,2.1l0.8,1l1.6-1.5V358.7L158.3,358.7z M162.2,356.2c0.1,0.5,0.2,0.9,0.4,1.2
		c0.2,0.3,0.4,0.6,0.6,0.8c0.2,0.2,0.4,0.3,0.7,0.4c0.2,0.1,0.4,0.2,0.7,0.2c0.2,0,0.4,0,0.6,0s0.3,0,0.6,0c0.2,0,0.4-0.1,0.7-0.2
		c0.2-0.1,0.5-0.2,0.7-0.4c0.2-0.2,0.4-0.5,0.6-0.8c0.2-0.3,0.3-0.7,0.4-1.2s0.2-1,0.2-1.7c0-0.7-0.1-1.2-0.2-1.7s-0.2-0.9-0.4-1.2
		c-0.2-0.3-0.4-0.6-0.6-0.8c-0.2-0.2-0.4-0.3-0.7-0.4c-0.2-0.1-0.4-0.2-0.7-0.2c-0.2,0-0.4,0-0.6,0s-0.3,0-0.6,0
		c-0.2,0-0.4,0.1-0.7,0.2c-0.2,0.1-0.5,0.2-0.7,0.4c-0.2,0.2-0.4,0.5-0.6,0.8c-0.2,0.3-0.3,0.7-0.4,1.2c-0.1,0.5-0.2,1-0.2,1.7
		C162.1,355.1,162.1,355.7,162.2,356.2L162.2,356.2z M163.5,353.5c0-0.3,0.1-0.7,0.2-1c0.1-0.3,0.3-0.6,0.5-0.8
		c0.2-0.2,0.5-0.3,0.9-0.3s0.6,0.1,0.9,0.3s0.4,0.5,0.5,0.8c0.1,0.3,0.2,0.6,0.2,1c0,0.3,0.1,0.7,0.1,0.9c0,0.3,0,0.6-0.1,0.9
		c0,0.3-0.1,0.7-0.2,1c-0.1,0.3-0.3,0.6-0.5,0.8s-0.5,0.3-0.9,0.3s-0.6-0.1-0.9-0.3c-0.2-0.2-0.4-0.5-0.5-0.8
		c-0.1-0.3-0.2-0.6-0.2-1c0-0.3-0.1-0.7-0.1-0.9C163.5,354.2,163.5,353.9,163.5,353.5L163.5,353.5z"/>
	<path d="M183.1,353.7h-3.3v1.4h1.7v2c-0.3,0.2-0.6,0.3-0.9,0.3c-0.3,0.1-0.7,0.1-1.1,0.1c-0.4,0-0.8-0.1-1.2-0.2
		c-0.4-0.2-0.7-0.4-0.9-0.7c-0.3-0.3-0.5-0.6-0.6-1c-0.1-0.4-0.2-0.8-0.2-1.3c0-0.4,0.1-0.8,0.2-1.2c0.1-0.4,0.3-0.7,0.6-1
		s0.6-0.5,0.9-0.6c0.4-0.2,0.8-0.2,1.2-0.2c0.4,0,0.8,0.1,1.2,0.2c0.4,0.1,0.7,0.3,1,0.6l1.1-1.1c-0.4-0.4-1-0.7-1.5-0.8
		c-0.6-0.2-1.2-0.2-1.8-0.2c-0.7,0-1.3,0.1-1.8,0.3c-0.5,0.2-1,0.5-1.4,0.9c-0.4,0.4-0.7,0.9-0.9,1.4c-0.2,0.6-0.3,1.2-0.3,1.9
		c0,0.7,0.1,1.3,0.3,1.8c0.2,0.5,0.5,1,0.9,1.4c0.4,0.4,0.9,0.7,1.4,0.9c0.5,0.2,1.1,0.3,1.8,0.3c1.3,0,2.5-0.3,3.5-0.8V353.7
		L183.1,353.7z M184,358.7h1.7l0.8-1.9h3.7l0.8,1.9h1.7l-3.7-8.5h-1.3L184,358.7L184,358.7z M187,355.4l1.3-3.5l1.3,3.5H187
		L187,355.4z M193.8,358.7h1.5v-6.5h0l4.2,6.5h1.9v-8.5h-1.5v6.3h0l-4.1-6.3h-2V358.7L193.8,358.7z M205.2,358.7h1.5v-7.1h2.6v-1.4
		h-6.7v1.4h2.6V358.7L205.2,358.7z M210.5,358.7h1.5v-6.5h0l4.2,6.5h1.9v-8.5h-1.5v6.3h0l-4.1-6.3h-2V358.7L210.5,358.7z
		 M220.1,358.7h5.8v-1.4h-4.3V355h3.9v-1.4h-3.9v-2.1h4.1v-1.4h-5.6V358.7L220.1,358.7z M227.6,358.7h1.5v-3.6h1.1l2,3.6h1.8
		l-2.3-3.8c0.6-0.1,1.1-0.3,1.5-0.8c0.3-0.4,0.5-0.9,0.5-1.5c0-0.5-0.1-0.9-0.3-1.2s-0.4-0.6-0.7-0.7c-0.3-0.2-0.6-0.3-1-0.4
		c-0.4-0.1-0.8-0.1-1.2-0.1h-3V358.7L227.6,358.7z M229.1,353.8v-2.3h1.3c0.2,0,0.4,0,0.6,0c0.2,0,0.4,0.1,0.6,0.1
		c0.2,0.1,0.3,0.2,0.4,0.3s0.2,0.4,0.2,0.6c0,0.3-0.1,0.5-0.2,0.7s-0.3,0.3-0.4,0.3s-0.4,0.1-0.6,0.1c-0.2,0-0.4,0-0.6,0H229.1
		L229.1,353.8z"/>
	<path d="M159.6,377.7h1.4v-8.5h-1.3l-2.6,2.1l0.8,1l1.6-1.5V377.7L159.6,377.7z M165.4,377.7h1.4v-8.5h-1.3l-2.6,2.1l0.8,1l1.6-1.5
		V377.7L165.4,377.7z"/>
	<path d="M175.1,377.7h5.8v-1.4h-4.3V374h3.9v-1.4h-3.9v-2.1h4.1v-1.4h-5.6V377.7L175.1,377.7z M182.5,377.7h3.1
		c0.4,0,0.8,0,1.2-0.1c0.4-0.1,0.7-0.2,1-0.4c0.3-0.2,0.5-0.4,0.7-0.7s0.3-0.7,0.3-1.2c0-0.3,0-0.5-0.1-0.8
		c-0.1-0.2-0.2-0.4-0.4-0.6c-0.2-0.2-0.4-0.3-0.6-0.4c-0.2-0.1-0.5-0.2-0.7-0.2v0c0.4-0.1,0.8-0.4,1.1-0.7c0.3-0.3,0.4-0.7,0.4-1.2
		c0-0.4-0.1-0.7-0.2-1c-0.2-0.3-0.3-0.5-0.6-0.7c-0.2-0.2-0.5-0.3-0.8-0.4c-0.3-0.1-0.6-0.1-0.9-0.1h-3.3V377.7L182.5,377.7z
		 M184,370.5h1.2c0.6,0,1,0.1,1.3,0.3c0.3,0.2,0.4,0.5,0.4,0.8c0,0.3-0.1,0.6-0.4,0.8c-0.3,0.2-0.6,0.3-1.1,0.3H184V370.5L184,370.5
		z M184,373.9h1.5c0.6,0,1.1,0.1,1.4,0.3c0.3,0.2,0.4,0.5,0.4,0.9c0,0.3-0.1,0.5-0.2,0.7c-0.1,0.2-0.3,0.3-0.5,0.4
		c-0.2,0.1-0.4,0.1-0.6,0.2c-0.2,0-0.4,0-0.6,0H184V373.9L184,373.9z M190.5,377.7h1.4v-7.1h0l2.6,7.1h1.1l2.6-7.1h0v7.1h1.4v-8.5
		h-2.3l-2.3,6l-2.3-6h-2.3V377.7L190.5,377.7z M201.7,377.7h5.8v-1.4h-4.3V374h3.9v-1.4h-3.9v-2.1h4.1v-1.4h-5.6V377.7L201.7,377.7z
		 M209.1,377.7h1.5v-3.6h1.1l2,3.6h1.8l-2.3-3.8c0.6-0.1,1.1-0.3,1.5-0.8c0.3-0.4,0.5-0.9,0.5-1.5c0-0.5-0.1-0.9-0.3-1.2
		c-0.2-0.3-0.4-0.6-0.7-0.7c-0.3-0.2-0.6-0.3-1-0.4c-0.4-0.1-0.8-0.1-1.2-0.1h-3V377.7L209.1,377.7z M210.6,372.8v-2.3h1.3
		c0.2,0,0.4,0,0.6,0c0.2,0,0.4,0.1,0.6,0.2c0.2,0.1,0.3,0.2,0.4,0.3s0.2,0.4,0.2,0.6c0,0.3-0.1,0.5-0.2,0.7s-0.3,0.3-0.4,0.3
		c-0.2,0.1-0.4,0.1-0.6,0.1c-0.2,0-0.4,0-0.6,0H210.6L210.6,372.8z"/>
	<path d="M158.5,396.7h1.4v-8.5h-1.3l-2.6,2.1l0.8,1l1.6-1.5V396.7L158.5,396.7z M162.3,396.7h5.7v-1.3H164l2.6-2.4
		c0.4-0.4,0.7-0.7,0.9-1.1s0.4-0.9,0.4-1.4c0-0.4-0.1-0.8-0.2-1.1c-0.1-0.3-0.3-0.6-0.6-0.8c-0.2-0.2-0.5-0.3-0.9-0.4
		c-0.3-0.1-0.7-0.2-1.1-0.2c-0.4,0-0.7,0.1-1.1,0.2c-0.3,0.1-0.6,0.3-0.9,0.5c-0.2,0.2-0.5,0.4-0.6,0.8c-0.2,0.3-0.2,0.6-0.3,1
		l1.5,0.1c0-0.4,0.2-0.6,0.4-0.8c0.2-0.2,0.5-0.3,0.9-0.3c0.2,0,0.3,0,0.5,0.1c0.1,0.1,0.3,0.1,0.4,0.2s0.2,0.2,0.3,0.3
		c0.1,0.1,0.1,0.3,0.1,0.5c0,0.1,0,0.3-0.1,0.4c-0.1,0.1-0.1,0.3-0.2,0.4c-0.1,0.1-0.2,0.2-0.3,0.3s-0.2,0.2-0.3,0.3l-3.3,3.2V396.7
		L162.3,396.7z"/>
	<path d="M182.5,389.3c-0.4-0.5-0.9-0.8-1.4-1c-0.5-0.2-1-0.3-1.6-0.3c-0.7,0-1.3,0.1-1.8,0.3c-0.5,0.2-1,0.5-1.4,0.9
		c-0.4,0.4-0.7,0.9-0.9,1.4c-0.2,0.6-0.3,1.2-0.3,1.9c0,0.7,0.1,1.3,0.3,1.8c0.2,0.5,0.5,1,0.9,1.4c0.4,0.4,0.9,0.7,1.4,0.9
		c0.5,0.2,1.1,0.3,1.8,0.3c0.6,0,1.2-0.1,1.8-0.4s1-0.6,1.4-1.2l-1.2-0.9c-0.3,0.4-0.6,0.6-0.9,0.8c-0.3,0.2-0.7,0.2-1,0.2
		c-0.4,0-0.8-0.1-1.2-0.2c-0.4-0.2-0.7-0.4-0.9-0.7c-0.3-0.3-0.5-0.6-0.6-1c-0.1-0.4-0.2-0.8-0.2-1.3c0-0.4,0.1-0.8,0.2-1.2
		c0.1-0.4,0.3-0.7,0.6-1s0.6-0.5,0.9-0.6c0.4-0.2,0.8-0.2,1.2-0.2c0.3,0,0.6,0.1,0.9,0.2c0.3,0.1,0.6,0.3,0.9,0.7L182.5,389.3
		L182.5,389.3z M183.9,396.7h1.5v-3.7h4v3.7h1.5v-8.5h-1.5v3.4h-4v-3.4h-1.5V396.7L183.9,396.7z M192.9,396.7h1.5v-3.6h1.1l2,3.6
		h1.8l-2.3-3.8c0.6-0.1,1.1-0.3,1.5-0.8c0.3-0.4,0.5-0.9,0.5-1.5c0-0.5-0.1-0.9-0.3-1.2c-0.2-0.3-0.4-0.6-0.7-0.7
		c-0.3-0.2-0.6-0.3-1-0.4c-0.4-0.1-0.8-0.1-1.2-0.1h-3V396.7L192.9,396.7z M194.4,391.8v-2.3h1.3c0.2,0,0.4,0,0.6,0
		c0.2,0,0.4,0.1,0.6,0.1c0.2,0.1,0.3,0.2,0.4,0.3c0.1,0.2,0.2,0.4,0.2,0.6c0,0.3-0.1,0.5-0.2,0.7s-0.3,0.3-0.4,0.3
		c-0.2,0.1-0.4,0.1-0.6,0.1c-0.2,0-0.4,0-0.6,0H194.4L194.4,391.8z M200.5,396.7h1.5v-8.5h-1.5V396.7L200.5,396.7z M209.3,388.8
		c-0.3-0.3-0.7-0.5-1.1-0.7c-0.4-0.1-0.9-0.2-1.3-0.2c-0.4,0-0.8,0.1-1.2,0.2s-0.7,0.3-1,0.5c-0.3,0.2-0.5,0.5-0.7,0.8
		c-0.2,0.3-0.3,0.7-0.3,1.1c0,0.5,0.1,0.9,0.3,1.2c0.2,0.3,0.4,0.5,0.7,0.7c0.3,0.2,0.6,0.3,1,0.4c0.4,0.1,0.7,0.2,1,0.3
		c0.3,0.1,0.5,0.3,0.7,0.4s0.3,0.4,0.3,0.7c0,0.2,0,0.4-0.1,0.5c-0.1,0.1-0.2,0.3-0.3,0.4c-0.1,0.1-0.3,0.2-0.5,0.2
		c-0.2,0-0.4,0.1-0.5,0.1c-0.3,0-0.7-0.1-1-0.2c-0.3-0.2-0.5-0.4-0.7-0.7l-1.1,1.1c0.4,0.4,0.8,0.7,1.3,0.9c0.5,0.2,1,0.3,1.5,0.3
		c0.4,0,0.8-0.1,1.2-0.2c0.4-0.1,0.7-0.3,1-0.5c0.3-0.2,0.5-0.5,0.7-0.8c0.2-0.3,0.3-0.7,0.3-1.2c0-0.5-0.1-0.9-0.3-1.2
		c-0.2-0.3-0.4-0.5-0.7-0.7c-0.3-0.2-0.6-0.3-1-0.4c-0.4-0.1-0.7-0.2-1-0.3c-0.3-0.1-0.5-0.2-0.7-0.4c-0.2-0.2-0.3-0.4-0.3-0.7
		c0-0.2,0-0.4,0.1-0.5c0.1-0.1,0.2-0.3,0.3-0.3c0.1-0.1,0.3-0.2,0.4-0.2c0.2,0,0.3-0.1,0.5-0.1c0.3,0,0.6,0.1,0.8,0.2
		s0.5,0.3,0.6,0.5L209.3,388.8L209.3,388.8z M212.8,396.7h1.5v-7.1h2.6v-1.4h-6.7v1.4h2.6V396.7L212.8,396.7z"/>
	<path d="M158.4,415.7h1.4v-8.5h-1.3l-2.6,2.1l0.8,1l1.6-1.5V415.7L158.4,415.7z M164.4,411.9h0.3c0.2,0,0.4,0,0.7,0
		c0.2,0,0.4,0.1,0.6,0.2c0.2,0.1,0.3,0.2,0.4,0.4s0.2,0.4,0.2,0.7c0,0.2,0,0.4-0.1,0.5c-0.1,0.2-0.2,0.3-0.3,0.4
		c-0.1,0.1-0.3,0.2-0.5,0.3c-0.2,0.1-0.4,0.1-0.5,0.1c-0.4,0-0.7-0.1-0.9-0.3c-0.2-0.2-0.4-0.5-0.5-0.8l-1.5,0.4
		c0.1,0.4,0.2,0.7,0.4,0.9c0.2,0.3,0.4,0.5,0.7,0.6c0.3,0.2,0.5,0.3,0.8,0.4c0.3,0.1,0.6,0.1,1,0.1c0.4,0,0.7-0.1,1.1-0.2
		c0.3-0.1,0.7-0.3,0.9-0.5c0.3-0.2,0.5-0.5,0.6-0.8c0.2-0.3,0.2-0.7,0.2-1.1c0-0.5-0.1-1-0.4-1.4c-0.3-0.4-0.7-0.6-1.2-0.7v0
		c0.5-0.1,0.8-0.3,1.1-0.7s0.4-0.8,0.4-1.2c0-0.4-0.1-0.7-0.2-1c-0.1-0.3-0.3-0.5-0.6-0.7c-0.2-0.2-0.5-0.3-0.9-0.4
		c-0.3-0.1-0.7-0.1-1-0.1c-0.3,0-0.6,0-0.9,0.1c-0.3,0.1-0.6,0.2-0.8,0.3c-0.2,0.1-0.4,0.3-0.6,0.6c-0.2,0.2-0.3,0.5-0.4,0.8
		l1.5,0.4c0.1-0.3,0.3-0.5,0.5-0.7c0.2-0.2,0.5-0.2,0.8-0.2c0.4,0,0.7,0.1,0.9,0.3c0.2,0.2,0.3,0.5,0.3,0.8c0,0.3,0,0.5-0.1,0.6
		s-0.2,0.3-0.4,0.3c-0.2,0.1-0.3,0.1-0.5,0.2c-0.2,0-0.4,0-0.6,0h-0.4V411.9L164.4,411.9z"/>
	<path d="M175.1,415.7h3.1c0.4,0,0.8,0,1.2-0.1c0.4-0.1,0.7-0.2,1-0.4c0.3-0.2,0.5-0.4,0.7-0.7c0.2-0.3,0.3-0.7,0.3-1.2
		c0-0.3,0-0.5-0.1-0.8c-0.1-0.2-0.2-0.4-0.4-0.6c-0.2-0.2-0.4-0.3-0.6-0.4c-0.2-0.1-0.5-0.2-0.7-0.2v0c0.4-0.1,0.8-0.4,1.1-0.7
		c0.3-0.3,0.4-0.7,0.4-1.2c0-0.4-0.1-0.7-0.2-1c-0.2-0.3-0.4-0.5-0.6-0.7c-0.2-0.2-0.5-0.3-0.8-0.4c-0.3-0.1-0.6-0.1-0.9-0.1h-3.3
		V415.7L175.1,415.7z M176.6,408.5h1.2c0.6,0,1,0.1,1.3,0.3c0.3,0.2,0.4,0.5,0.4,0.8c0,0.3-0.1,0.6-0.4,0.8
		c-0.3,0.2-0.6,0.3-1.1,0.3h-1.4V408.5L176.6,408.5z M176.6,411.9h1.5c0.6,0,1.1,0.1,1.4,0.3c0.3,0.2,0.4,0.5,0.4,0.9
		c0,0.3-0.1,0.5-0.2,0.7c-0.1,0.2-0.3,0.3-0.5,0.4c-0.2,0.1-0.4,0.1-0.6,0.2c-0.2,0-0.4,0-0.6,0h-1.4V411.9L176.6,411.9z M183,415.7
		h1.5v-3.6h1.1l2,3.6h1.8l-2.3-3.8c0.6-0.1,1.1-0.3,1.5-0.8c0.3-0.4,0.5-0.9,0.5-1.5c0-0.5-0.1-0.9-0.3-1.2
		c-0.2-0.3-0.4-0.6-0.7-0.7c-0.3-0.2-0.6-0.3-1-0.4c-0.4-0.1-0.8-0.1-1.2-0.1h-3V415.7L183,415.7z M184.5,410.8v-2.3h1.3
		c0.2,0,0.4,0,0.6,0c0.2,0,0.4,0.1,0.6,0.1c0.2,0.1,0.3,0.2,0.4,0.3c0.1,0.2,0.2,0.4,0.2,0.6c0,0.3-0.1,0.5-0.2,0.7
		c-0.1,0.2-0.3,0.3-0.4,0.3c-0.2,0.1-0.4,0.1-0.6,0.1c-0.2,0-0.4,0-0.6,0H184.5L184.5,410.8z M197.5,407.2H196v5.3
		c0,0.2,0,0.4-0.1,0.7c-0.1,0.2-0.2,0.4-0.3,0.6c-0.1,0.2-0.3,0.3-0.6,0.5c-0.2,0.1-0.5,0.2-0.9,0.2c-0.4,0-0.7-0.1-0.9-0.2
		c-0.2-0.1-0.4-0.3-0.6-0.5c-0.1-0.2-0.3-0.4-0.3-0.6c-0.1-0.2-0.1-0.4-0.1-0.7v-5.3h-1.5v5.4c0,0.5,0.1,1,0.3,1.4
		c0.2,0.4,0.4,0.8,0.7,1.1c0.3,0.3,0.7,0.5,1.1,0.7c0.4,0.2,0.9,0.2,1.4,0.2c0.5,0,0.9-0.1,1.4-0.2c0.4-0.2,0.8-0.4,1.1-0.7
		c0.3-0.3,0.5-0.6,0.7-1.1c0.2-0.4,0.3-0.9,0.3-1.4V407.2L197.5,407.2z M199.4,415.7h1.5v-6.5h0l4.2,6.5h1.9v-8.5h-1.5v6.3h0
		l-4.1-6.3h-2V415.7L199.4,415.7z M209.1,415.7h1.5v-6.5h0l4.2,6.5h1.9v-8.5h-1.5v6.3h0l-4.1-6.3h-2V415.7L209.1,415.7z
		 M218.8,415.7h5.8v-1.4h-4.3V412h3.9v-1.4h-3.9v-2.1h4.1v-1.4h-5.6V415.7L218.8,415.7z M226.2,415.7h1.5v-3.6h1.1l2,3.6h1.8
		l-2.3-3.8c0.6-0.1,1.1-0.3,1.5-0.8c0.3-0.4,0.5-0.9,0.5-1.5c0-0.5-0.1-0.9-0.3-1.2c-0.2-0.3-0.4-0.6-0.7-0.7
		c-0.3-0.2-0.6-0.3-1-0.4s-0.8-0.1-1.2-0.1h-3V415.7L226.2,415.7z M227.8,410.8v-2.3h1.3c0.2,0,0.4,0,0.6,0c0.2,0,0.4,0.1,0.6,0.1
		c0.2,0.1,0.3,0.2,0.4,0.3c0.1,0.2,0.2,0.4,0.2,0.6c0,0.3-0.1,0.5-0.2,0.7c-0.1,0.2-0.3,0.3-0.4,0.3c-0.2,0.1-0.4,0.1-0.6,0.1
		c-0.2,0-0.4,0-0.6,0H227.8L227.8,410.8z"/>
	<path d="M158.1,434.6h1.4v-8.5h-1.3l-2.6,2.1l0.8,1l1.6-1.5V434.6L158.1,434.6z M165.7,434.6h1.4v-1.7h1.2v-1.3h-1.2v-5.5h-1.6
		l-3.4,5.3v1.4h3.6V434.6L165.7,434.6z M165.7,431.6h-2.1l2.1-3.4h0V431.6L165.7,431.6z"/>
	<path d="M175.1,434.6h3.1c0.4,0,0.8,0,1.2-0.1c0.4-0.1,0.7-0.2,1-0.4c0.3-0.2,0.5-0.4,0.7-0.7c0.2-0.3,0.3-0.7,0.3-1.2
		c0-0.3,0-0.5-0.1-0.8c-0.1-0.2-0.2-0.4-0.4-0.6c-0.2-0.2-0.4-0.3-0.6-0.4c-0.2-0.1-0.5-0.2-0.7-0.2v0c0.4-0.1,0.8-0.4,1.1-0.7
		c0.3-0.3,0.4-0.7,0.4-1.2c0-0.4-0.1-0.7-0.2-1c-0.2-0.3-0.4-0.5-0.6-0.7c-0.2-0.2-0.5-0.3-0.8-0.4c-0.3-0.1-0.6-0.1-0.9-0.1h-3.3
		V434.6L175.1,434.6z M176.6,427.4h1.2c0.6,0,1,0.1,1.3,0.3c0.3,0.2,0.4,0.5,0.4,0.8c0,0.3-0.1,0.6-0.4,0.8
		c-0.3,0.2-0.6,0.3-1.1,0.3h-1.4V427.4L176.6,427.4z M176.6,430.9h1.5c0.6,0,1.1,0.1,1.4,0.3s0.4,0.5,0.4,0.9c0,0.3-0.1,0.5-0.2,0.7
		s-0.3,0.3-0.5,0.4s-0.4,0.1-0.6,0.2c-0.2,0-0.4,0-0.6,0h-1.4V430.9L176.6,430.9z M183,434.6h1.5V431h1.1l2,3.6h1.8l-2.3-3.8
		c0.6-0.1,1.1-0.3,1.5-0.8c0.3-0.4,0.5-0.9,0.5-1.5c0-0.5-0.1-0.9-0.3-1.2c-0.2-0.3-0.4-0.6-0.7-0.7c-0.3-0.2-0.6-0.3-1-0.4
		c-0.4-0.1-0.8-0.1-1.2-0.1h-3V434.6L183,434.6z M184.5,429.7v-2.3h1.3c0.2,0,0.4,0,0.6,0c0.2,0,0.4,0.1,0.6,0.1s0.3,0.2,0.4,0.3
		c0.1,0.2,0.2,0.4,0.2,0.6c0,0.3-0.1,0.5-0.2,0.7c-0.1,0.2-0.3,0.3-0.4,0.3c-0.2,0.1-0.4,0.1-0.6,0.1c-0.2,0-0.4,0-0.6,0H184.5
		L184.5,429.7z M197.5,426.1H196v5.3c0,0.2,0,0.4-0.1,0.7c-0.1,0.2-0.2,0.4-0.3,0.6c-0.1,0.2-0.3,0.4-0.6,0.5
		c-0.2,0.1-0.5,0.2-0.9,0.2c-0.4,0-0.7-0.1-0.9-0.2c-0.2-0.1-0.4-0.3-0.6-0.5c-0.1-0.2-0.3-0.4-0.3-0.6c-0.1-0.2-0.1-0.4-0.1-0.7
		v-5.3h-1.5v5.4c0,0.5,0.1,1,0.3,1.4c0.2,0.4,0.4,0.8,0.7,1c0.3,0.3,0.7,0.5,1.1,0.7c0.4,0.2,0.9,0.2,1.4,0.2c0.5,0,0.9-0.1,1.4-0.2
		s0.8-0.4,1.1-0.7c0.3-0.3,0.5-0.6,0.7-1c0.2-0.4,0.3-0.9,0.3-1.4V426.1L197.5,426.1z M199.4,434.6h3.2c0.5,0,1-0.1,1.6-0.3
		s1-0.4,1.5-0.8c0.4-0.3,0.8-0.8,1.1-1.3c0.3-0.5,0.4-1.2,0.4-1.9c0-0.7-0.1-1.3-0.4-1.9c-0.2-0.5-0.6-1-1-1.3s-0.9-0.6-1.4-0.8
		c-0.5-0.2-1.1-0.3-1.6-0.3h-3.3V434.6L199.4,434.6z M201,433.3v-5.8h1.4c0.5,0,0.9,0.1,1.3,0.2c0.4,0.1,0.7,0.3,1,0.5
		c0.3,0.2,0.5,0.5,0.7,0.9c0.2,0.4,0.2,0.8,0.2,1.3c0,0.5-0.1,1-0.3,1.3c-0.2,0.4-0.4,0.7-0.7,0.9c-0.3,0.2-0.7,0.4-1.1,0.5
		c-0.4,0.1-0.9,0.2-1.3,0.2H201L201,433.3z M208.7,434.6h5.8v-1.4h-4.3V431h3.9v-1.4h-3.9v-2.1h4.1v-1.4h-5.6V434.6L208.7,434.6z
		 M216.1,434.6h1.5V431h1.1l2,3.6h1.8l-2.3-3.8c0.6-0.1,1.1-0.3,1.5-0.8c0.3-0.4,0.5-0.9,0.5-1.5c0-0.5-0.1-0.9-0.3-1.2
		c-0.2-0.3-0.4-0.6-0.7-0.7c-0.3-0.2-0.6-0.3-1-0.4c-0.4-0.1-0.8-0.1-1.2-0.1h-3V434.6L216.1,434.6z M217.6,429.7v-2.3h1.3
		c0.2,0,0.4,0,0.6,0c0.2,0,0.4,0.1,0.6,0.1s0.3,0.2,0.4,0.3c0.1,0.2,0.2,0.4,0.2,0.6c0,0.3-0.1,0.5-0.2,0.7s-0.3,0.3-0.4,0.3
		c-0.2,0.1-0.4,0.1-0.6,0.1c-0.2,0-0.4,0-0.6,0H217.6L217.6,429.7z"/>
	<polygon points="153.3,173.9 152.8,173.9 152.8,193.2 172.7,193.2 172.7,173.4 152.8,173.4 152.8,173.9 153.3,173.9 153.3,174.4 
		171.7,174.4 171.7,192.2 153.8,192.2 153.8,173.9 153.3,173.9 153.3,174.4 153.3,173.9 	"/>
	<polygon points="153.3,192.8 152.8,192.8 152.8,212.2 172.7,212.2 172.7,192.3 152.8,192.3 152.8,192.8 153.3,192.8 153.3,193.3 
		171.7,193.3 171.7,211.2 153.8,211.2 153.8,192.8 153.3,192.8 153.3,193.3 153.3,192.8 	"/>
	<polygon points="153.3,211.8 152.8,211.8 152.8,231.1 172.7,231.1 172.7,211.3 152.8,211.3 152.8,211.8 153.3,211.8 153.3,212.3 
		171.7,212.3 171.7,230.1 153.8,230.1 153.8,211.8 153.3,211.8 153.3,212.3 153.3,211.8 	"/>
	<polygon points="153.3,230.8 152.8,230.8 152.8,250.1 172.7,250.1 172.7,230.3 152.8,230.3 152.8,230.8 153.3,230.8 153.3,231.3 
		171.7,231.3 171.7,249.1 153.8,249.1 153.8,230.8 153.3,230.8 153.3,231.3 153.3,230.8 	"/>
	<polygon points="153.3,249.8 152.8,249.8 152.8,269.1 172.7,269.1 172.7,249.3 152.8,249.3 152.8,249.8 153.3,249.8 153.3,250.3 
		171.7,250.3 171.7,268.1 153.8,268.1 153.8,249.8 153.3,249.8 153.3,250.3 153.3,249.8 	"/>
	<polygon points="153.3,268.7 152.8,268.7 152.8,288.1 172.7,288.1 172.7,268.2 152.8,268.2 152.8,268.7 153.3,268.7 153.3,269.2 
		171.7,269.2 171.7,287.1 153.8,287.1 153.8,268.7 153.3,268.7 153.3,269.2 153.3,268.7 	"/>
	<polygon points="153.3,287.7 152.8,287.7 152.8,307.1 172.7,307.1 172.7,287.2 152.8,287.2 152.8,287.7 153.3,287.7 153.3,288.2 
		171.7,288.2 171.7,306.1 153.8,306.1 153.8,287.7 153.3,287.7 153.3,288.2 153.3,287.7 	"/>
	<polygon points="153.3,306.7 152.8,306.7 152.8,326 172.7,326 172.7,306.2 152.8,306.2 152.8,306.7 153.3,306.7 153.3,307.2 
		171.7,307.2 171.7,325 153.8,325 153.8,306.7 153.3,306.7 153.3,307.2 153.3,306.7 	"/>
	<polygon points="153.3,325.7 152.8,325.7 152.8,345 172.7,345 172.7,325.2 152.8,325.2 152.8,325.7 153.3,325.7 153.3,326.2 
		171.7,326.2 171.7,344 153.8,344 153.8,325.7 153.3,325.7 153.3,326.2 153.3,325.7 	"/>
	<polygon points="153.3,344.6 152.8,344.6 152.8,364 172.7,364 172.7,344.1 152.8,344.1 152.8,344.6 153.3,344.6 153.3,345.1 
		171.7,345.1 171.7,363 153.8,363 153.8,344.6 153.3,344.6 153.3,345.1 153.3,344.6 	"/>
	<polygon points="153.3,363.6 152.8,363.6 152.8,383 172.7,383 172.7,363.1 152.8,363.1 152.8,363.6 153.3,363.6 153.3,364.1 
		171.7,364.1 171.7,382 153.8,382 153.8,363.6 153.3,363.6 153.3,364.1 153.3,363.6 	"/>
	<polygon points="153.3,382.6 152.8,382.6 152.8,401.9 172.7,401.9 172.7,382.1 152.8,382.1 152.8,382.6 153.3,382.6 153.3,383.1 
		171.7,383.1 171.7,400.9 153.8,400.9 153.8,382.6 153.3,382.6 153.3,383.1 153.3,382.6 	"/>
	<polygon points="153.3,401.6 152.8,401.6 152.8,420.9 172.7,420.9 172.7,401.1 152.8,401.1 152.8,401.6 153.3,401.6 153.3,402.1 
		171.7,402.1 171.7,419.9 153.8,419.9 153.8,401.6 153.3,401.6 153.3,402.1 153.3,401.6 	"/>
	<polygon points="153.3,420.5 152.8,420.5 152.8,439.9 172.7,439.9 172.7,420 152.8,420 152.8,420.5 153.3,420.5 153.3,421 
		171.7,421 171.7,438.9 153.8,438.9 153.8,420.5 153.3,420.5 153.3,421 153.3,420.5 	"/>
	<g>
		<defs>
			<polyline id="SVGID_5_" points="353.7,64.1 262.8,64.1 262.8,32.3 371.1,32.3 371.1,48.2 353.7,48.2 353.7,64.1 			"/>
		</defs>
		<clipPath id="SVGID_6_">
			<use xlink:href="#SVGID_5_"  style="overflow:visible;"/>
		</clipPath>
		<g transform="matrix(1 0 0 1 0 0)" style="clip-path:url(#SVGID_6_);">
			
				<image style="overflow:visible;" width="604" height="179" xlink:href="B5E91808BB9A9AB2.jpg"  transform="matrix(0.1801 0 0 0.1813 262.536 31.9719)">
			</image>
		</g>
	</g>
	<g>
		<defs>
			<polyline id="SVGID_7_" points="371.1,64.1 353.7,64.1 353.7,48.2 371.1,48.2 371.1,64.1 			"/>
		</defs>
		<clipPath id="SVGID_8_">
			<use xlink:href="#SVGID_7_"  style="overflow:visible;"/>
		</clipPath>
		<g style="clip-path:url(#SVGID_8_);">
			
				<image style="overflow:visible;" width="99" height="90" xlink:href="B5E91808BB9A9AB6.jpg"  transform="matrix(0.1823 0 0 0.1819 353.256 48.0519)">
			</image>
		</g>
	</g>
	<polygon points="292.3,561.6 291.8,561.6 291.8,572.3 303,572.3 303,561.1 291.8,561.1 291.8,561.6 292.3,561.6 292.3,562.1 
		302,562.1 302,571.3 292.8,571.3 292.8,561.6 292.3,561.6 292.3,562.1 292.3,561.6 	"/>
	<polygon points="302.6,561.6 302.1,561.6 302.1,572.3 313.3,572.3 313.3,561.1 302.1,561.1 302.1,561.6 302.6,561.6 302.6,562.1 
		312.3,562.1 312.3,571.3 303.1,571.3 303.1,561.6 302.6,561.6 302.6,562.1 302.6,561.6 	"/>
	<polygon points="312.8,561.6 312.3,561.6 312.3,572.3 323.5,572.3 323.5,561.1 312.3,561.1 312.3,561.6 312.8,561.6 312.8,562.1 
		322.5,562.1 322.5,571.3 313.3,571.3 313.3,561.6 312.8,561.6 312.8,562.1 312.8,561.6 	"/>
	<polygon points="323,561.6 322.5,561.6 322.5,572.3 333.7,572.3 333.7,561.1 322.5,561.1 322.5,561.6 323,561.6 323,562.1 
		332.7,562.1 332.7,571.3 323.5,571.3 323.5,561.6 323,561.6 323,562.1 323,561.6 	"/>
	<polygon points="333.2,561.6 332.7,561.6 332.7,572.3 344,572.3 344,561.1 332.7,561.1 332.7,561.6 333.2,561.6 333.2,562.1 
		343,562.1 343,571.3 333.7,571.3 333.7,561.6 333.2,561.6 333.2,562.1 333.2,561.6 	"/>
	<polygon points="343.5,561.6 343,561.6 343,572.3 354.2,572.3 354.2,561.1 343,561.1 343,561.6 343.5,561.6 343.5,562.1 
		353.2,562.1 353.2,571.3 344,571.3 344,561.6 343.5,561.6 343.5,562.1 343.5,561.6 	"/>
	<polygon points="353.7,561.6 353.2,561.6 353.2,572.3 364.4,572.3 364.4,561.1 353.2,561.1 353.2,561.6 353.7,561.6 353.7,562.1 
		363.4,562.1 363.4,571.3 354.2,571.3 354.2,561.6 353.7,561.6 353.7,562.1 353.7,561.6 	"/>
	<polygon points="251.3,561.6 250.8,561.6 250.8,572.3 262,572.3 262,561.1 250.8,561.1 250.8,561.6 251.3,561.6 251.3,562.1 
		261,562.1 261,571.3 251.8,571.3 251.8,561.6 251.3,561.6 251.3,562.1 251.3,561.6 	"/>
	<polygon points="261.5,561.6 261,561.6 261,572.3 272.2,572.3 272.2,561.1 261,561.1 261,561.6 261.5,561.6 261.5,562.1 
		271.2,562.1 271.2,571.3 262,571.3 262,561.6 261.5,561.6 261.5,562.1 261.5,561.6 	"/>
	<polygon points="271.7,561.6 271.2,561.6 271.2,572.3 282.4,572.3 282.4,561.1 271.2,561.1 271.2,561.6 271.7,561.6 271.7,562.1 
		281.4,562.1 281.4,571.3 272.2,571.3 272.2,561.6 271.7,561.6 271.7,562.1 271.7,561.6 	"/>
	<polygon points="281.9,561.6 281.4,561.6 281.4,572.3 292.7,572.3 292.7,561.1 281.4,561.1 281.4,561.6 281.9,561.6 281.9,562.1 
		291.7,562.1 291.7,571.3 282.4,571.3 282.4,561.6 281.9,561.6 281.9,562.1 281.9,561.6 	"/>
	<polygon points="363.9,561.6 363.4,561.6 363.4,572.3 374.6,572.3 374.6,561.1 363.4,561.1 363.4,561.6 363.9,561.6 363.9,562.1 
		373.6,562.1 373.6,571.3 364.4,571.3 364.4,561.6 363.9,561.6 363.9,562.1 363.9,561.6 	"/>
	<polygon points="374.2,561.6 373.7,561.6 373.7,572.3 384.9,572.3 384.9,561.1 373.7,561.1 373.7,561.6 374.2,561.6 374.2,562.1 
		383.9,562.1 383.9,571.3 374.7,571.3 374.7,561.6 374.2,561.6 374.2,562.1 374.2,561.6 	"/>
	<polygon points="384.4,561.6 383.9,561.6 383.9,572.3 395.1,572.3 395.1,561.1 383.9,561.1 383.9,561.6 384.4,561.6 384.4,562.1 
		394.1,562.1 394.1,571.3 384.9,571.3 384.9,561.6 384.4,561.6 384.4,562.1 384.4,561.6 	"/>
	<text transform="matrix(1 0 0 1 259.0789 268.8332)" class="st5 st6">23  30. Juni</text>
	<text transform="matrix(1 0 0 1 336.3602 268.8332)" class="st5 st6"> </text>
</g>
</svg>
